<svg width="42" height="45" viewBox="0 0 42 45" fill="none" xmlns="http://www.w3.org/2000/svg">
<path d="M41.6908 0.81656C41.5887 0.266585 40.9765 -0.0518225 40.4385 0.170098L34.5757 2.53403C30.7537 3.89449 26.0691 3.53749 20.9763 3.52784C15.7536 3.52784 11.5698 4.06817 7.07072 2.44719L1.7831 0.0832593C1.26361 -0.148309 0.651357 0.121854 0.512209 0.662181C-0.174256 3.22873 -1.25961 9.85739 5.55865 9.80915H5.6978C5.66997 9.88634 5.64214 9.96353 5.64214 10.0504V14.9326C5.63286 15.3764 6.04103 15.7334 6.56051 15.7334H10.3082C10.8277 15.7431 11.2452 15.3861 11.2452 14.9519V10.0697C11.2544 9.98282 11.2266 9.90563 11.1988 9.82844L18.2119 9.84774C18.184 9.92493 18.1562 10.0021 18.1562 10.089V14.9712C18.1469 15.415 18.5551 15.772 19.0746 15.772H22.8223C23.3418 15.7817 23.7592 15.4247 23.7592 14.9905V10.1083C23.7685 10.0214 23.7407 9.94423 23.7128 9.86704L31.1712 9.88634C31.1434 9.96352 31.1155 10.0407 31.1155 10.1276V15.0098C31.1063 15.4536 31.5144 15.8106 32.0339 15.8106H35.7816C36.3011 15.8203 36.7186 15.4633 36.7186 15.0291V10.1469C36.7278 10.0504 36.7 9.97317 36.6722 9.88634C42.7112 9.71266 42.1639 3.39276 41.6908 0.826209V0.81656Z" fill="white"/>
<path d="M39.2259 18.8516H2.73352C1.22097 18.8516 0 20.2382 0 21.9559C0 23.6736 1.22097 25.0602 2.73352 25.0602H5.53992V43.3032C5.53992 44.2449 6.20508 45.0002 7.03425 45.0002H9.51263C10.3418 45.0002 11.007 44.2449 11.007 43.3032V25.0602H31.5083V43.3032C31.5083 44.2449 32.1735 45.0002 33.0026 45.0002H35.481C36.3102 45.0002 36.9754 44.2449 36.9754 43.3032V25.0602H39.2259C40.7385 25.0602 41.9595 23.6736 41.9595 21.9559C41.9595 20.2382 40.7385 18.8516 39.2259 18.8516Z" fill="white"/>
</svg>
