<?xml version="1.0" encoding="UTF-8"?>
<svg id="Layer_1" data-name="Layer 1" xmlns="http://www.w3.org/2000/svg" viewBox="0 0 276 89.39">
  <defs>
    <style>
      .cls-1 {
        fill: #fff;
      }
    </style>
  </defs>
  <path class="cls-1" d="M191.51,26.11c4.25-.38,7.92.92,10.4,4.44.94-.59,1.74-1.33,2.68-1.92,3.85-2.4,9.23-3.64,13.48-1.51,9,4.52,5.06,18.51,5.85,26.39.23,2.31,3.43,5.42-.26,6.73-1.85.65-3.83.35-5.73.31-.57-.01-1.08.17-1.76.11-3.75-.31-1.71-3.78-1.4-6.1.27-2,.07-3.85.13-5.79.14-4.72,1.6-15.04-4.74-16.47-1.58-.36-3.07-.19-4.55.44-.47.2-2.15,1.11-2.21,1.59-.06.45.39,2,.46,2.62.43,3.73.22,7.5.13,11.24-.04,1.85-.4,4.42.09,6.2.52,1.92,2.76,4.37-.04,5.7-1.48.7-7.28.88-8.83.43-2.45-.7-.73-3.96-.5-5.61.17-4.54.64-9.54.39-14.07-.24-4.37-1.7-8.97-6.95-8.71-4.24.21-7.42,3.98-7.41,8.12,0,.39.13.72.13,1.06.01,3.6-.3,7.87,0,11.38.19,2.29,2.24,4.32,1.89,6.51-.14.86-.77,1.29-1.6,1.37-2.59.26-5.68.15-8.3.12-.45,0-1.46-.18-1.84-.42-2.07-1.34.38-4.58.86-6.24,1.4-4.84-.15-12.42.44-17.58-.19-2.43-1.16-2.51-2.38-4.14-1.63-2.18,1.05-3.42,2.68-4.19,1.13-.53,3.54-1.6,4.73-1.57,1.28.04,1.92.87,2.53,1.87.27.44.94,2.16,1.29,2.27.44.14.86-.17,1.21-.4,3.15-2.05,5.03-3.8,9.12-4.16h0Z"/>
  <path class="cls-1" d="M59,25.76c1.38-.15,2.97-.16,3.68,1.23.5.98.34,1.77.24,2.81-.55,5.85-2.4,14.74-.76,20.34,2.07,7.06,11.33,6.15,12.83-1.16.85-4.11.12-9.79.26-14.05-.11-.42-.12-.87-.26-1.29-.72-2.25-5.84-5.11-.77-6.64,1.55-.47,5.42-1.19,7.02-1.28,4.51-.24,2.93,4.25,2.67,7.06-.44,4.86-.23,9.93-.24,14.81-.01,3.56.33,7.95.01,11.39-.07.74-.51,1.18-1.25,1.24-1.96.18-4.25-.1-6.24-.06-1.33-.41-.73-2.98-1.05-3.21-.66-.47-2.87,1.68-3.53,2.06-4.75,2.75-12.74,2.61-16.22-2.12-3.88-5.27-2.11-13.64-1.85-19.72.11-2.57.02-3.81-1.66-5.8-.78-.92-1.89-1.38-1.65-2.84.28-1.74,4.39-1.89,5.71-2.11.98-.17,2.07-.54,3.03-.65h0Z"/>
  <path class="cls-1" d="M17.02,14.26c2.13-.05,4.35.2,6.48.21,4.74.04,9.5.03,14.25,0,2.48-.02,5.1-.35,7.58-.12,3.05.28,3.38,3.51,3.51,5.98.1,1.97.28,4.97-2.33,5.26-2.17.24-2.09-1.49-2.72-2.95-.55-1.28-1.45-2.14-2.81-2.52-1.52-.42-5.11-.5-5.52,1.54-.17.83-.23,2.39-.27,3.29-.31,7.7-.14,15.77.13,23.46.08,2.32-.22,6.01,1.42,7.82.46.51,1.47,1.08,1.63,1.81.38,1.69-1.24,2.35-2.64,2.41-.54.02-.97-.12-1.42-.13-3.28-.03-6.57.03-9.85,0-1.14-.24-1.78-.99-1.59-2.19.16-.98,1.73-2.27,2.29-3.16,1.23-1.92.96-6.38,1.01-8.7.11-4.91.03-9.9,0-14.8-.02-2.9.28-6.81-.24-9.59-.5-2.64-5.28-2.31-6.98-1.07-1.52,1.11-1.33,2.48-2.08,3.85-.88,1.6-3.29,1.11-4-.4-.68-1.43-.31-5.98.23-7.52.65-1.88,2.02-2.44,3.93-2.49Z"/>
  <path class="cls-1" d="M151.53,25.17c3.99-.2,10.09.82,11.77,5,1.1,2.74.38,6.91-3.31,4.49-1.54-1-2.6-2.65-4.28-3.55-2.43-1.3-7.46-1.9-8.64,1.33-1.51,4.16,6.06,5.91,8.7,6.9,6.16,2.33,11.46,6.15,9.37,13.63-2.63,9.38-19.82,10.23-25.39,3.56-1.21-1.45-2.26-5.1-1.01-6.7,1.79-2.28,4.76,1.87,6.05,2.96,2.63,2.23,8.52,4.21,11.03.94,1.83-2.39.08-4.52-2.05-5.76-5.07-2.95-13.92-4.02-14.66-11.31-.76-7.53,5.77-11.18,12.42-11.5Z"/>
  <path class="cls-1" d="M110.01,26.23c7.76-.73,8.96,9.65,3.69,12.21-5.31,2.58-3.62-6.47-8.58-5.13-3.24.87-4.46,5.58-4.58,8.46-.12,3-.27,10.83.9,13.34.61,1.32,2.22,2.32,2.08,3.97-.1,1.12-1.3,1.66-2.31,1.72-2.64-.13-5.57.11-8.19-.12-2.41-.21-3.67-1.28-2.69-3.75.63-1.61,1.63-2.73,1.8-4.6.38-4.22.04-9.75,0-14.1,0-.25.13-.48.12-.71-.01-.8-.17-2.2-.53-2.91-.76-1.52-3.9-3.11-1.73-5.03.96-.85,6.05-3.02,7.3-3.02,1.11,0,1.83.96,2.33,1.82.33.56.93,2.51,1.57,2.45.41-.04,2.24-1.75,2.76-2.12,1.75-1.25,3.89-2.27,6.06-2.47h0Z"/>
  <path class="cls-1" d="M128.63,25.87c1.74-.24,2.89.42,3.22,2.17.15.78.03,1.41,0,2.12-.16,6.86-.7,14.65-.24,21.45.04.65.21,1.69.42,2.31.47,1.38,2.37,3.28,2.19,4.67-.15,1.1-1.71,1.73-2.68,1.83-1.96.22-6.92.23-8.87,0-.27-.03-.68-.15-.93-.25-2.26-.88-.66-2.87-.12-4.33,1.73-4.65,1.07-8.4,1.09-13.25.01-2.15.51-6.15-.45-8.07-.77-1.55-4.08-3.5-1.98-5.25.96-.8,7.05-3.23,8.33-3.41Z"/>
  <path class="cls-1" d="M127.69,12.01c2.5-.28,4.92,1.29,5.01,3.93.22,6.17-10.46,9.07-11.04,3.08-.31-3.23,2.87-6.67,6.02-7.02Z"/>
  <path class="cls-1" d="M263.14,39.56c-1.5-8.75-8.78-14.98-17.78-14.52-21.5,1.11-21.33,36.39,2.1,35.4,11.73-.5,17.6-9.72,15.68-20.88ZM253.03,52.49c-3.48,4.43-9.7,2.62-12.29-1.81-3.04-5.2-4.28-20.32,4.27-20.9,8.8-.6,12.49,17.02,8.02,22.71h0Z"/>
  <path class="cls-1" d="M15.79,77.41c-.58,0-1.13-.08-1.66-.24-.53-.17-.95-.38-1.26-.64l.48-1.07c.3.23.66.43,1.1.58.44.16.88.23,1.34.23.39,0,.7-.04.94-.13.24-.08.42-.2.53-.34.11-.15.17-.31.17-.5,0-.23-.08-.41-.24-.54-.16-.14-.37-.25-.63-.33-.25-.08-.54-.16-.86-.23-.31-.07-.62-.15-.94-.24-.31-.1-.6-.22-.86-.37-.25-.16-.46-.36-.62-.61-.16-.25-.24-.58-.24-.97s.11-.77.32-1.1c.22-.34.55-.61.98-.8.44-.2,1-.31,1.68-.31.44,0,.88.06,1.32.17s.82.27,1.14.49l-.43,1.07c-.33-.2-.67-.34-1.03-.43-.35-.1-.69-.15-1.02-.15-.38,0-.69.05-.93.14-.23.09-.41.21-.52.36-.11.15-.16.32-.16.51,0,.23.08.41.23.55.16.13.37.24.62.32.26.08.55.16.87.23.32.07.63.15.94.24.32.09.6.21.86.36.26.15.47.35.62.6.16.25.24.57.24.96s-.11.76-.33,1.1c-.21.33-.54.6-.98.8-.44.2-1,.3-1.68.3ZM22.67,77.38c-.63,0-1.18-.12-1.65-.37-.47-.25-.83-.6-1.09-1.04-.25-.44-.38-.93-.38-1.49s.12-1.06.37-1.49c.25-.44.6-.78,1.04-1.03.44-.25.95-.37,1.51-.37s1.04.12,1.47.36c.43.24.77.58,1.02,1.02.25.44.37.95.37,1.54,0,.06,0,.12-.01.19,0,.07,0,.14-.01.2h-4.71v-.88h4.01l-.52.27c0-.32-.06-.61-.2-.86-.14-.25-.33-.44-.58-.58-.24-.14-.52-.21-.84-.21s-.61.07-.86.21c-.24.14-.43.34-.57.59-.13.25-.2.54-.2.88v.21c0,.34.08.64.23.9.16.26.37.46.66.6.28.14.61.21.97.21.32,0,.6-.05.86-.15.25-.1.48-.25.68-.47l.71.81c-.25.3-.57.53-.96.69-.38.16-.82.23-1.31.23ZM29.19,77.38c-.59,0-1.12-.12-1.59-.37-.46-.25-.82-.6-1.08-1.04-.26-.44-.39-.93-.39-1.49s.13-1.06.39-1.49c.26-.44.62-.78,1.08-1.03.47-.25.99-.37,1.59-.37.55,0,1.03.11,1.45.34.42.22.74.54.96.97l-1.02.59c-.17-.27-.38-.47-.62-.59-.24-.13-.5-.19-.78-.19-.32,0-.62.07-.88.21-.26.14-.47.35-.61.61-.15.26-.22.57-.22.94s.07.68.22.95c.15.26.35.46.61.6.26.14.55.21.88.21.28,0,.54-.06.78-.19.25-.13.45-.32.62-.59l1.02.59c-.22.42-.54.75-.96.98-.42.23-.9.34-1.45.34ZM32.74,77.3v-5.65h1.26v1.55l-.15-.45c.17-.38.43-.67.79-.87.37-.2.82-.3,1.36-.3v1.26c-.06-.01-.11-.02-.16-.02-.05,0-.1-.01-.15-.01-.5,0-.9.15-1.2.44-.3.29-.44.72-.44,1.3v2.74h-1.32ZM39.73,77.38c-.63,0-1.18-.12-1.65-.37-.47-.25-.83-.6-1.09-1.04-.25-.44-.38-.93-.38-1.49s.12-1.06.37-1.49c.25-.44.6-.78,1.04-1.03.44-.25.95-.37,1.51-.37s1.04.12,1.47.36c.43.24.77.58,1.02,1.02.25.44.37.95.37,1.54,0,.06,0,.12-.01.19,0,.07,0,.14-.01.2h-4.71v-.88h4.01l-.52.27c0-.32-.06-.61-.2-.86-.14-.25-.33-.44-.58-.58-.24-.14-.52-.21-.84-.21s-.61.07-.86.21c-.24.14-.43.34-.57.59-.13.25-.2.54-.2.88v.21c0,.34.08.64.23.9.16.26.37.46.66.6.28.14.61.21.97.21.32,0,.6-.05.86-.15.25-.1.48-.25.68-.47l.71.81c-.25.3-.57.53-.96.69-.38.16-.82.23-1.31.23ZM45.78,77.38c-.62,0-1.1-.16-1.44-.48-.34-.32-.51-.8-.51-1.43v-5.07h1.32v5.03c0,.27.07.48.2.62.14.15.33.22.58.22.3,0,.54-.08.74-.23l.37.94c-.16.13-.35.22-.57.29-.23.06-.46.1-.7.1ZM42.9,72.71v-1.06h3.76v1.06h-3.76ZM51.42,77.3v-1.14l-.07-.24v-2c0-.39-.12-.69-.35-.9-.23-.22-.59-.33-1.06-.33-.32,0-.63.05-.94.15-.3.1-.56.24-.77.41l-.52-.96c.3-.23.66-.41,1.08-.52.42-.12.86-.18,1.31-.18.82,0,1.45.2,1.89.59.45.39.68.99.68,1.81v3.31h-1.25ZM49.64,77.38c-.42,0-.79-.07-1.11-.21-.32-.15-.56-.35-.74-.6-.17-.26-.25-.55-.25-.88s.07-.6.22-.86c.16-.25.41-.45.75-.6.35-.15.8-.22,1.37-.22h1.64v.88h-1.54c-.45,0-.75.07-.91.22-.16.14-.23.32-.23.53,0,.24.1.43.29.57s.45.21.79.21.61-.07.87-.22c.26-.15.45-.37.56-.66l.22.79c-.13.33-.36.59-.69.77-.32.18-.74.28-1.24.28ZM54.36,77.3v-5.65h1.26v1.55l-.15-.45c.17-.38.43-.67.79-.87.37-.2.82-.3,1.36-.3v1.26c-.06-.01-.11-.02-.16-.02-.05,0-.1-.01-.15-.01-.5,0-.9.15-1.19.44-.3.29-.44.72-.44,1.3v2.74h-1.32ZM58.75,77.3v-5.65h1.32v5.65h-1.32ZM58.53,70.88l1.43-1.45h1.55l-1.84,1.45h-1.14ZM65.29,77.3v-1.14l-.07-.24v-2c0-.39-.12-.69-.35-.9-.23-.22-.59-.33-1.06-.33-.32,0-.63.05-.94.15-.3.1-.56.24-.77.41l-.52-.96c.3-.23.66-.41,1.08-.52.42-.12.86-.18,1.31-.18.82,0,1.45.2,1.89.59.45.39.68.99.68,1.81v3.31h-1.25ZM63.51,77.38c-.42,0-.79-.07-1.11-.21-.32-.15-.56-.35-.74-.6-.17-.26-.25-.55-.25-.88s.07-.6.22-.86c.16-.25.41-.45.75-.6.35-.15.8-.22,1.37-.22h1.64v.88h-1.54c-.45,0-.75.07-.91.22-.16.14-.23.32-.23.53,0,.24.1.43.29.57.19.14.45.21.79.21s.61-.07.87-.22c.26-.15.45-.37.56-.66l.22.79c-.13.33-.36.59-.69.77-.32.18-.74.28-1.24.28ZM73.54,77.38c-.54,0-1.03-.12-1.47-.36-.43-.25-.77-.59-1.02-1.02s-.37-.94-.37-1.52.12-1.09.37-1.52c.25-.43.59-.76,1.02-1,.44-.24.93-.36,1.47-.36.47,0,.9.11,1.27.32.37.2.67.52.89.94.22.42.33.97.33,1.63s-.11,1.2-.32,1.63c-.21.42-.5.74-.88.95-.37.21-.8.32-1.29.32ZM73.7,76.25c.32,0,.6-.07.85-.21.25-.14.45-.35.6-.61.16-.27.23-.58.23-.94s-.08-.68-.23-.94c-.15-.27-.35-.47-.6-.61-.25-.14-.53-.21-.85-.21s-.6.07-.86.21c-.25.14-.45.35-.6.61-.15.26-.22.57-.22.94s.07.67.22.94c.16.27.36.47.6.61.25.14.54.21.86.21ZM75.42,77.3v-1.33l.05-1.5-.11-1.5v-3.51h1.31v7.85h-1.26ZM81.07,77.38c-.63,0-1.18-.12-1.65-.37-.47-.25-.83-.6-1.09-1.04-.25-.44-.38-.93-.38-1.49s.12-1.06.37-1.49c.25-.44.6-.78,1.04-1.03.44-.25.95-.37,1.51-.37s1.04.12,1.47.36.77.58,1.02,1.02c.25.44.37.95.37,1.54,0,.06,0,.12-.01.19,0,.07,0,.14-.01.2h-4.71v-.88h4.01l-.52.27c0-.32-.06-.61-.2-.86-.14-.25-.33-.44-.58-.58-.24-.14-.52-.21-.84-.21s-.61.07-.86.21c-.24.14-.43.34-.57.59-.13.25-.2.54-.2.88v.21c0,.34.08.64.23.9.16.26.37.46.66.6.28.14.61.21.97.21.32,0,.6-.05.86-.15.25-.1.48-.25.68-.47l.71.81c-.25.3-.57.53-.96.69-.38.16-.82.23-1.31.23ZM89.54,77.3v-6.24h-2.45v-1.16h6.28v1.16h-2.45v6.24h-1.37ZM96.53,77.38c-.48,0-.9-.09-1.27-.26-.37-.18-.65-.46-.86-.82-.2-.37-.31-.84-.31-1.41v-3.23h1.32v3.05c0,.51.11.89.34,1.14.23.25.56.37.98.37.31,0,.58-.06.8-.19.23-.13.41-.32.54-.57.13-.25.2-.57.2-.94v-2.86h1.32v5.65h-1.26v-1.52l.22.47c-.19.37-.47.65-.84.85-.37.19-.77.29-1.21.29ZM101.34,77.3v-5.65h1.26v1.55l-.15-.45c.17-.38.43-.67.79-.87.37-.2.82-.3,1.36-.3v1.26c-.06-.01-.11-.02-.16-.02-.05,0-.1-.01-.15-.01-.5,0-.9.15-1.19.44-.3.29-.44.72-.44,1.3v2.74h-1.32ZM105.73,77.3v-5.65h1.32v5.65h-1.32ZM106.39,70.73c-.25,0-.45-.08-.61-.23-.16-.16-.23-.34-.23-.56s.08-.41.23-.56c.16-.16.37-.23.61-.23s.45.07.6.22c.16.14.24.32.24.54,0,.23-.08.43-.23.59-.16.16-.36.23-.61.23ZM110.53,77.38c-.47,0-.93-.06-1.36-.18-.43-.13-.77-.28-1.03-.45l.51-1c.25.16.56.3.91.4.35.11.71.16,1.06.16.42,0,.72-.06.9-.17.19-.11.29-.26.29-.45,0-.16-.06-.27-.19-.35-.13-.08-.29-.15-.5-.19-.2-.04-.43-.08-.69-.12-.25-.04-.5-.08-.75-.14-.25-.06-.47-.15-.68-.26-.2-.12-.37-.28-.5-.48-.13-.2-.19-.46-.19-.78,0-.36.1-.67.31-.93.2-.27.49-.47.86-.61.37-.15.81-.22,1.32-.22.38,0,.76.04,1.15.13.39.08.71.2.96.36l-.51,1c-.27-.16-.54-.27-.81-.33-.27-.06-.54-.1-.8-.1-.4,0-.7.06-.9.18-.19.12-.29.27-.29.45,0,.17.06.3.19.38.13.08.29.15.5.2.2.05.43.09.68.13.25.03.5.07.75.14.25.06.47.15.68.26.21.11.38.26.51.45.13.2.19.45.19.77,0,.35-.11.66-.32.92-.2.26-.5.47-.88.61-.38.14-.84.21-1.36.21ZM114.23,77.3v-5.65h1.26v1.5l-.22-.44c.19-.37.47-.65.82-.84.37-.19.78-.29,1.25-.29.53,0,.99.13,1.38.39.39.26.65.66.78,1.18l-.52-.18c.18-.42.49-.76.91-1.02.42-.25.91-.38,1.47-.38.45,0,.85.09,1.2.26.35.18.63.45.82.81.2.36.3.82.3,1.4v3.24h-1.32v-3.07c0-.5-.11-.87-.33-1.12-.22-.25-.53-.37-.94-.37-.29,0-.55.06-.77.19-.22.13-.39.31-.52.56-.12.25-.18.56-.18.94v2.87h-1.32v-3.07c0-.5-.11-.87-.33-1.12-.22-.25-.53-.37-.94-.37-.29,0-.55.06-.77.19-.22.13-.39.31-.52.56-.12.25-.18.56-.18.94v2.87h-1.32ZM127.91,77.38c-.58,0-1.09-.12-1.54-.37-.45-.25-.81-.6-1.07-1.04-.26-.44-.39-.93-.39-1.49s.13-1.06.39-1.49c.26-.44.62-.78,1.07-1.03.45-.25.97-.37,1.54-.37s1.1.12,1.56.37c.46.25.81.59,1.07,1.02.26.43.39.93.39,1.5s-.13,1.05-.39,1.49c-.25.44-.61.78-1.07,1.04-.45.25-.97.37-1.56.37ZM127.91,76.25c.33,0,.61-.07.87-.21.25-.14.45-.35.59-.61.15-.27.22-.58.22-.94s-.07-.68-.22-.94c-.14-.27-.34-.47-.59-.61-.25-.14-.54-.21-.86-.21s-.61.07-.87.21c-.25.14-.44.35-.59.61-.15.26-.22.57-.22.94s.07.67.22.94.35.47.59.61c.25.14.54.21.86.21Z"/>
</svg>