<svg width="79" height="58" viewBox="0 0 79 58" fill="none" xmlns="http://www.w3.org/2000/svg">
<path d="M4 35C3.71667 35 3.47934 34.904 3.288 34.712C3.09667 34.52 3.00067 34.2827 3 34C2.99934 33.7173 3.09534 33.48 3.288 33.288C3.48067 33.096 3.718 33 4 33H20C20.2833 33 20.521 33.096 20.713 33.288C20.905 33.48 21.0007 33.7173 21 34C20.9993 34.2827 20.9033 34.5203 20.712 34.713C20.5207 34.9057 20.2833 35.0013 20 35H4ZM4 30C3.71667 30 3.47934 29.904 3.288 29.712C3.09667 29.52 3.00067 29.2827 3 29C2.99934 28.7173 3.09534 28.48 3.288 28.288C3.48067 28.096 3.718 28 4 28H20C20.2833 28 20.521 28.096 20.713 28.288C20.905 28.48 21.0007 28.7173 21 29C20.9993 29.2827 20.9033 29.5203 20.712 29.713C20.5207 29.9057 20.2833 30.0013 20 30H4ZM4 25C3.71667 25 3.47934 24.904 3.288 24.712C3.09667 24.52 3.00067 24.2827 3 24C2.99934 23.7173 3.09534 23.48 3.288 23.288C3.48067 23.096 3.718 23 4 23H20C20.2833 23 20.521 23.096 20.713 23.288C20.905 23.48 21.0007 23.7173 21 24C20.9993 24.2827 20.9033 24.5203 20.712 24.713C20.5207 24.9057 20.2833 25.0013 20 25H4Z" fill="white"/>
<path d="M30.696 34V22.32H32.776L36.232 30.112H36.488L39.928 22.32H42.024V34H40.456V24.032L40.568 24.064L37.256 31.584H35.336L32.008 24.064L32.136 24.032V34H30.696ZM48.8228 34.288C48.0761 34.288 47.4308 34.16 46.8868 33.904C46.3428 33.648 45.9001 33.312 45.5588 32.896C45.2174 32.4693 44.9614 31.9947 44.7908 31.472C44.6308 30.9493 44.5508 30.416 44.5508 29.872V29.584C44.5508 29.0293 44.6308 28.4907 44.7908 27.968C44.9614 27.4453 45.2174 26.976 45.5588 26.56C45.9001 26.1333 46.3321 25.7973 46.8548 25.552C47.3881 25.296 48.0121 25.168 48.7268 25.168C49.6548 25.168 50.4174 25.3707 51.0148 25.776C51.6228 26.1707 52.0708 26.6827 52.3588 27.312C52.6574 27.9413 52.8068 28.6133 52.8068 29.328V30.016H45.2228V28.864H51.6868L51.3348 29.488C51.3348 28.88 51.2388 28.3573 51.0468 27.92C50.8548 27.472 50.5668 27.1253 50.1828 26.88C49.7988 26.6347 49.3134 26.512 48.7268 26.512C48.1188 26.512 47.6121 26.6507 47.2068 26.928C46.8121 27.2053 46.5134 27.584 46.3108 28.064C46.1188 28.544 46.0228 29.0987 46.0228 29.728C46.0228 30.336 46.1188 30.8853 46.3108 31.376C46.5134 31.856 46.8228 32.24 47.2388 32.528C47.6548 32.8053 48.1828 32.944 48.8228 32.944C49.4948 32.944 50.0388 32.7947 50.4548 32.496C50.8814 32.1973 51.1374 31.8507 51.2228 31.456H52.6628C52.5454 32.0427 52.3108 32.5493 51.9588 32.976C51.6068 33.4027 51.1641 33.728 50.6308 33.952C50.0974 34.176 49.4948 34.288 48.8228 34.288ZM54.9876 34V25.456H56.2036V29.12H56.0116C56.0116 28.2773 56.1236 27.568 56.3476 26.992C56.5823 26.4053 56.9343 25.9627 57.4036 25.664C57.873 25.3547 58.465 25.2 59.1796 25.2H59.2436C60.321 25.2 61.1156 25.536 61.6276 26.208C62.1503 26.88 62.4116 27.8507 62.4116 29.12V34H60.8756V28.8C60.8756 28.1387 60.689 27.6107 60.3156 27.216C59.9423 26.8107 59.4303 26.608 58.7796 26.608C58.1076 26.608 57.5636 26.816 57.1476 27.232C56.7316 27.648 56.5236 28.2027 56.5236 28.896V34H54.9876ZM68.182 34.256C67.1687 34.256 66.39 33.9253 65.846 33.264C65.302 32.6027 65.03 31.648 65.03 30.4V25.44H66.566V30.704C66.566 31.376 66.7473 31.904 67.11 32.288C67.4727 32.6613 67.9633 32.848 68.582 32.848C69.222 32.848 69.7447 32.6453 70.15 32.24C70.5553 31.824 70.758 31.2587 70.758 30.544V25.44H72.294V34H71.078V30.336H71.27C71.27 31.1787 71.158 31.8933 70.934 32.48C70.71 33.056 70.374 33.4987 69.926 33.808C69.4887 34.1067 68.9287 34.256 68.246 34.256H68.182Z" fill="white"/>
</svg>
