<?xml version="1.0" encoding="UTF-8"?>
<svg id="Layer_1" data-name="Layer 1" xmlns="http://www.w3.org/2000/svg" xmlns:xlink="http://www.w3.org/1999/xlink" viewBox="0 0 80 80">
  <defs>
    <style>
      .cls-1 {
        fill: url(#linear-gradient-2);
      }

      .cls-2 {
        fill: none;
      }

      .cls-3 {
        fill: url(#linear-gradient);
      }

      .cls-4 {
        clip-path: url(#clippath);
      }
    </style>
    <clipPath id="clippath">
      <polyline class="cls-2" points="9.41 16.36 70.59 16.36 70.59 63.64 9.41 63.64 9.41 16.36"/>
    </clipPath>
    <linearGradient id="linear-gradient" x1="-149.16" y1="5.59" x2="-148.16" y2="5.59" gradientTransform="translate(-9623 -323.5) rotate(-180) scale(65 -65)" gradientUnits="userSpaceOnUse">
      <stop offset="0" stop-color="#eac476"/>
      <stop offset=".5" stop-color="#fef0ad"/>
      <stop offset="1" stop-color="#eac476"/>
    </linearGradient>
    <linearGradient id="linear-gradient-2" x1="-149.16" y1="5.59" x2="-148.16" y2="5.59" gradientTransform="translate(-9623 -323.5) rotate(-180) scale(65 -65)" gradientUnits="userSpaceOnUse">
      <stop offset="0" stop-color="#eac476"/>
      <stop offset=".5" stop-color="#fef0ad"/>
      <stop offset="1" stop-color="#eac476"/>
    </linearGradient>
  </defs>
  <g class="cls-4">
    <path class="cls-3" d="M23.55,57.06c-2.62,0-4.56-1.38-5.81-4.15-1.26-2.72-1.89-7.05-1.89-12.97s.62-10.18,1.86-12.9c1.24-2.73,3.17-4.09,5.79-4.09s4.55,1.36,5.79,4.09c1.24,2.73,1.86,7.03,1.86,12.9s-.61,10.2-1.83,12.97c-1.22,2.77-3.14,4.15-5.76,4.15M23.55,16.36h0c-4.61,0-8.12,1.99-10.53,5.97-2.41,3.98-3.62,9.83-3.62,17.54s1.2,13.65,3.59,17.7c2.39,4.05,5.89,6.07,10.5,6.07s8.07-2.02,10.48-6.07c2.41-4.05,3.62-9.94,3.62-17.7s-1.2-13.55-3.59-17.54c-2.39-3.98-5.88-5.97-10.45-5.97"/>
    <path class="cls-1" d="M57.76,16.49c-3.91,0-7.02,1.4-9.33,4.18-2.3,2.79-3.46,6.61-3.46,11.47v.89h6.23v-1.02c0-2.9.57-5.11,1.7-6.64,1.13-1.53,2.71-2.3,4.74-2.3s3.54.68,4.66,2.04c1.12,1.36,1.68,3.26,1.68,5.69,0,3.37-1.52,6.28-4.56,8.75l-6.81,5.69c-2.83,2.3-4.88,4.82-6.16,7.57-1.28,2.75-1.96,6.06-2.07,9.93h26.19v-6.64h-18.13c.1-1.15.51-2.19,1.21-3.13.7-.94,2.03-2.17,3.98-3.71l5.55-4.34c4.89-3.92,7.33-8.75,7.33-14.5,0-4.22-1.17-7.6-3.51-10.16-2.37-2.51-5.47-3.77-9.27-3.77"/>
  </g>
</svg>