<?xml version="1.0" encoding="UTF-8"?>
<svg id="Layer_1" data-name="Layer 1" xmlns="http://www.w3.org/2000/svg" xmlns:xlink="http://www.w3.org/1999/xlink" viewBox="0 0 80 80">
  <defs>
    <style>
      .cls-1 {
        fill: url(#linear-gradient-2);
      }

      .cls-2 {
        fill: none;
      }

      .cls-3 {
        fill: url(#linear-gradient);
      }

      .cls-4 {
        clip-path: url(#clippath);
      }
    </style>
    <clipPath id="clippath">
      <polyline class="cls-2" points="8.95 16.49 71.05 16.49 71.05 63.51 8.95 63.51 8.95 16.49"/>
    </clipPath>
    <linearGradient id="linear-gradient" x1="-288.43" y1="7.91" x2="-287.43" y2="7.91" gradientTransform="translate(-18814.83 -478.35) rotate(-180) scale(65.48 -65.48)" gradientUnits="userSpaceOnUse">
      <stop offset="0" stop-color="#eac476"/>
      <stop offset=".5" stop-color="#fef0ad"/>
      <stop offset="1" stop-color="#eac476"/>
    </linearGradient>
    <linearGradient id="linear-gradient-2" x1="-288.43" y1="7.92" x2="-287.43" y2="7.92" gradientTransform="translate(-18814.83 -478.35) rotate(-180) scale(65.48 -65.48)" gradientUnits="userSpaceOnUse">
      <stop offset="0" stop-color="#eac476"/>
      <stop offset=".5" stop-color="#fef0ad"/>
      <stop offset="1" stop-color="#eac476"/>
    </linearGradient>
  </defs>
  <g class="cls-4">
    <path class="cls-3" d="M22.99,56.85c-2.6,0-4.52-1.37-5.77-4.12-1.25-2.7-1.87-6.99-1.87-12.86s.62-10.09,1.85-12.8c1.23-2.7,3.15-4.05,5.75-4.05s4.52,1.35,5.75,4.05c1.23,2.7,1.85,6.97,1.85,12.8s-.61,10.12-1.82,12.86c-1.21,2.75-3.12,4.12-5.72,4.12M23.05,16.49h-.12c-4.55.02-8.01,1.99-10.39,5.92-2.38,3.93-3.57,9.68-3.59,17.26v.27c.01,7.62,1.2,13.42,3.56,17.41,2.37,4.01,5.85,6.02,10.43,6.02s8.01-2.01,10.4-6.02c2.39-4.01,3.59-9.86,3.59-17.55s-1.19-13.44-3.56-17.39c-2.37-3.93-5.8-5.91-10.32-5.92"/>
    <path class="cls-1" d="M56.44,16.56c-4.06,0-7.18,1.24-9.36,3.71-2.18,2.47-3.35,6.09-3.48,10.87h6.08c.1-2.83.68-4.89,1.74-6.18,1.06-1.29,2.64-1.93,4.76-1.93s3.62.57,4.73,1.71c1.11,1.14,1.66,2.75,1.66,4.82s-.55,3.59-1.64,4.69c-1.09,1.1-2.64,1.65-4.66,1.65h-2.5v6.08h3.33c2.36,0,4.17.63,5.44,1.9,1.26,1.27,1.9,3.06,1.9,5.38s-.65,4.25-1.95,5.64c-1.3,1.39-3.16,2.09-5.59,2.09s-4.5-.8-5.9-2.41c-1.4-1.6-2.16-3.91-2.26-6.91h-6.24c.1,4.9,1.41,8.77,3.93,11.59,2.51,2.83,6.02,4.25,10.53,4.25s7.73-1.31,10.3-3.93c2.53-2.58,3.8-6,3.8-10.26,0-2.96-.66-5.4-1.98-7.32-1.32-1.92-3.21-3.2-5.67-3.83v-.13c3.71-1.77,5.57-4.96,5.57-9.57,0-3.59-1.14-6.47-3.41-8.65-2.27-2.17-5.31-3.26-9.13-3.26"/>
  </g>
</svg>