<?xml version="1.0" encoding="UTF-8"?>
<svg id="Layer_1" data-name="Layer 1" xmlns="http://www.w3.org/2000/svg" xmlns:xlink="http://www.w3.org/1999/xlink" viewBox="0 0 150 16.15">
  <defs>
    <style>
      .cls-1 {
        fill: url(#New_Gradient_Swatch_1-4);
      }

      .cls-2 {
        fill: url(#New_Gradient_Swatch_1-3);
      }

      .cls-3 {
        fill: url(#New_Gradient_Swatch_1-8);
      }

      .cls-4 {
        fill: url(#New_Gradient_Swatch_1-13);
      }

      .cls-5 {
        fill: url(#New_Gradient_Swatch_1-10);
      }

      .cls-6 {
        fill: url(#New_Gradient_Swatch_1-11);
      }

      .cls-7 {
        fill: url(#New_Gradient_Swatch_1-7);
      }

      .cls-8 {
        fill: url(#New_Gradient_Swatch_1-12);
      }

      .cls-9 {
        fill: url(#New_Gradient_Swatch_1-6);
      }

      .cls-10 {
        fill: url(#New_Gradient_Swatch_1-2);
      }

      .cls-11 {
        fill: url(#New_Gradient_Swatch_1-9);
      }

      .cls-12 {
        fill: url(#New_Gradient_Swatch_1-5);
      }

      .cls-13 {
        fill: url(#New_Gradient_Swatch_1-14);
      }

      .cls-14 {
        fill: url(#New_Gradient_Swatch_1);
      }
    </style>
    <linearGradient id="New_Gradient_Swatch_1" data-name="New Gradient Swatch 1" x1="63.01" y1=".87" x2="63.01" y2="18.8" gradientUnits="userSpaceOnUse">
      <stop offset="0" stop-color="#d8aa3e"/>
      <stop offset=".23" stop-color="#e8ca6e"/>
      <stop offset=".49" stop-color="#f9e7a0"/>
      <stop offset=".72" stop-color="#ecd37c"/>
      <stop offset=".86" stop-color="#dfb44e"/>
      <stop offset="1" stop-color="#d9ab3e"/>
    </linearGradient>
    <linearGradient id="New_Gradient_Swatch_1-2" data-name="New Gradient Swatch 1" x1="72.91" x2="72.91" y2="18.8" xlink:href="#New_Gradient_Swatch_1"/>
    <linearGradient id="New_Gradient_Swatch_1-3" data-name="New Gradient Swatch 1" x1="84.31" y1=".87" x2="84.31" y2="18.8" xlink:href="#New_Gradient_Swatch_1"/>
    <linearGradient id="New_Gradient_Swatch_1-4" data-name="New Gradient Swatch 1" x1="94.77" y1=".87" x2="94.77" y2="18.8" xlink:href="#New_Gradient_Swatch_1"/>
    <linearGradient id="New_Gradient_Swatch_1-5" data-name="New Gradient Swatch 1" x1="106.98" y1=".87" x2="106.98" y2="18.8" xlink:href="#New_Gradient_Swatch_1"/>
    <linearGradient id="New_Gradient_Swatch_1-6" data-name="New Gradient Swatch 1" x1="116.84" y1=".87" x2="116.84" y2="18.8" xlink:href="#New_Gradient_Swatch_1"/>
    <linearGradient id="New_Gradient_Swatch_1-7" data-name="New Gradient Swatch 1" x1="124.78" y1=".87" x2="124.78" y2="18.8" xlink:href="#New_Gradient_Swatch_1"/>
    <linearGradient id="New_Gradient_Swatch_1-8" data-name="New Gradient Swatch 1" x1="138.13" y1=".87" x2="138.13" y2="18.8" xlink:href="#New_Gradient_Swatch_1"/>
    <linearGradient id="New_Gradient_Swatch_1-9" data-name="New Gradient Swatch 1" x1="148.34" y1=".87" x2="148.34" y2="18.8" xlink:href="#New_Gradient_Swatch_1"/>
    <linearGradient id="New_Gradient_Swatch_1-10" data-name="New Gradient Swatch 1" x1="6.59" y1=".87" x2="6.59" y2="18.8" xlink:href="#New_Gradient_Swatch_1"/>
    <linearGradient id="New_Gradient_Swatch_1-11" data-name="New Gradient Swatch 1" x1="17.27" y1=".87" x2="17.27" y2="18.8" xlink:href="#New_Gradient_Swatch_1"/>
    <linearGradient id="New_Gradient_Swatch_1-12" data-name="New Gradient Swatch 1" x1="28.81" y1=".87" x2="28.81" y2="18.8" xlink:href="#New_Gradient_Swatch_1"/>
    <linearGradient id="New_Gradient_Swatch_1-13" data-name="New Gradient Swatch 1" x1="40.52" y1=".87" x2="40.52" y2="18.8" xlink:href="#New_Gradient_Swatch_1"/>
    <linearGradient id="New_Gradient_Swatch_1-14" data-name="New Gradient Swatch 1" x1="52.76" y1=".87" x2="52.76" y2="18.8" xlink:href="#New_Gradient_Swatch_1"/>
  </defs>
  <rect class="cls-14" x="62.66" y="2.86" width=".71" height="11.43"/>
  <g>
    <g>
      <g>
        <path class="cls-10" d="M67.93,3.17h5.47c2.68,0,4.51,1.58,4.51,3.88s-1.84,3.89-4.51,3.89h-2.52v3.66h-2.95V3.17ZM73.26,8.6c1.06,0,1.69-.57,1.69-1.54s-.62-1.53-1.68-1.53h-2.39v3.07h2.38Z"/>
        <path class="cls-2" d="M79.16,14.61V3.17h5.71c2.72,0,4.27,1.33,4.27,3.5,0,1.89-1.24,3.12-3.17,3.19.93.06,1.65.67,2.16,1.8l1.32,2.95h-3.28l-1.35-2.94c-.42-.92-.7-1.14-1.45-1.14h-1.26v4.09h-2.95ZM84.55,8.24c1.04,0,1.64-.5,1.64-1.38s-.58-1.34-1.64-1.34h-2.44v2.72h2.44Z"/>
        <path class="cls-1" d="M98.7,3.17v2.45h-5.04v2.14h4.58v2.28h-4.58v2.12h5.17v2.45h-8.13V3.17h7.99Z"/>
        <path class="cls-12" d="M113.86,3.17v11.44h-2.95V5.65l-2.53,8.96h-2.96l-2.51-8.97v8.97h-2.82V3.17h4.65l2.31,8.25,2.32-8.25h4.48Z"/>
        <path class="cls-9" d="M118.31,14.61h-2.95V3.17h2.95v11.44Z"/>
        <path class="cls-7" d="M119.73,3.17h2.95v6.61c0,1.82.74,2.59,2.1,2.59s2.1-.78,2.1-2.59V3.17h2.95v6.88c0,3.08-2.09,4.8-5.05,4.8s-5.05-1.72-5.05-4.8V3.17Z"/>
        <path class="cls-3" d="M145.01,3.17v11.44h-2.95V5.65l-2.53,8.96h-2.96l-2.51-8.97v8.97h-2.82V3.17h4.65l2.31,8.25,2.32-8.25h4.48Z"/>
      </g>
      <path class="cls-11" d="M149.62,3.76c0,.74-.56,1.31-1.28,1.31s-1.27-.56-1.27-1.29.56-1.3,1.29-1.3,1.26.55,1.26,1.28ZM147.26,3.78c0,.64.46,1.12,1.08,1.12s1.09-.49,1.09-1.14-.46-1.11-1.08-1.11-1.1.48-1.1,1.12ZM147.88,4.38v-1.19h.57c.24,0,.41.14.41.35,0,.18-.13.31-.34.31.09,0,.16.07.22.19l.15.34h-.2l-.15-.32c-.04-.09-.11-.13-.21-.13h-.26v.46h-.19ZM148.4,3.75c.17,0,.28-.08.28-.2s-.1-.19-.27-.19h-.34v.38h.33Z"/>
    </g>
    <g>
      <path class="cls-5" d="M2.15,9.85h1.68v.68c0,1.74,1.16,3,2.74,3s2.78-1.29,2.78-3.04V3.41h1.68v7.08c0,2.78-1.75,4.6-4.43,4.6s-4.44-1.82-4.44-4.6v-.64Z"/>
      <path class="cls-6" d="M11.77,14.85l4.26-11.44h2.52l4.21,11.44h-1.78l-1.04-2.87h-5.36l-1.06,2.87h-1.74ZM19.38,10.46l-2.1-5.78-2.14,5.78h4.24Z"/>
      <path class="cls-8" d="M24.11,3.41h5.3c2.39,0,4.1,1.53,4.1,3.67s-1.72,3.7-4.1,3.7h-3.62v4.06h-1.68V3.41ZM29.28,9.23c1.56,0,2.55-.83,2.55-2.14s-.98-2.12-2.52-2.12h-3.52v4.26h3.49Z"/>
      <path class="cls-4" d="M40.51,3.17c3.21,0,5.4,2.41,5.4,5.96s-2.19,5.96-5.4,5.96-5.4-2.42-5.4-5.96,2.19-5.96,5.4-5.96ZM40.51,13.53c2.32,0,3.72-1.65,3.72-4.4s-1.4-4.4-3.72-4.4-3.72,1.65-3.72,4.4,1.4,4.4,3.72,4.4ZM41.08,2.81h-1.12l1.26-2.56h1.6l-1.74,2.56Z"/>
      <path class="cls-13" d="M57.83,14.85h-2.73l-5.79-10.36v10.36h-1.64V3.41h2.97l5.55,9.93V3.41h1.64v11.44Z"/>
    </g>
  </g>
</svg>