<svg width="40" height="33" viewBox="0 0 40 33" fill="none" xmlns="http://www.w3.org/2000/svg">
<path d="M0.01875 11.1598L0 4.97852C0 4.33477 0.59375 3.85977 1.21875 3.99727L3.44375 4.49102C4.10625 4.63477 4.64375 5.10977 4.88125 5.74102L6 8.72852L13.9563 11.0785L11.3625 2.00352C11.1813 1.36602 11.6625 0.728516 12.325 0.728516H14.8313C15.5563 0.728516 16.2188 1.11602 16.575 1.74727L23.3875 13.8598L30.0875 15.841C31.0812 16.1348 32.0125 16.6223 32.8187 17.266L34.9688 18.991C36.4688 20.191 36.1 22.5723 34.3 23.2535C31.725 24.2285 28.9125 24.3848 26.25 23.691L7.60625 18.841C6.9125 18.6598 6.28125 18.2973 5.775 17.7848L0.59375 12.566C0.225 12.191 0.0125 11.6848 0.0125 11.1598H0.01875ZM2 28.7285H38C39.1063 28.7285 40 29.6223 40 30.7285C40 31.8348 39.1063 32.7285 38 32.7285H2C0.89375 32.7285 0 31.8348 0 30.7285C0 29.6223 0.89375 28.7285 2 28.7285ZM8 23.7285C8 23.1981 8.21071 22.6894 8.58579 22.3143C8.96086 21.9392 9.46957 21.7285 10 21.7285C10.5304 21.7285 11.0391 21.9392 11.4142 22.3143C11.7893 22.6894 12 23.1981 12 23.7285C12 24.2589 11.7893 24.7677 11.4142 25.1427C11.0391 25.5178 10.5304 25.7285 10 25.7285C9.46957 25.7285 8.96086 25.5178 8.58579 25.1427C8.21071 24.7677 8 24.2589 8 23.7285ZM16 22.7285C16.5304 22.7285 17.0391 22.9392 17.4142 23.3143C17.7893 23.6894 18 24.1981 18 24.7285C18 25.2589 17.7893 25.7677 17.4142 26.1427C17.0391 26.5178 16.5304 26.7285 16 26.7285C15.4696 26.7285 14.9609 26.5178 14.5858 26.1427C14.2107 25.7677 14 25.2589 14 24.7285C14 24.1981 14.2107 23.6894 14.5858 23.3143C14.9609 22.9392 15.4696 22.7285 16 22.7285Z" fill="white"/>
</svg>
