<svg width="42" height="45" viewBox="0 0 42 45" fill="none" xmlns="http://www.w3.org/2000/svg">
<path d="M16.8743 0.173577C17.0881 0.27901 17.2757 0.430253 17.4238 0.616434C17.5718 0.802615 17.6765 1.01911 17.7305 1.25036C17.7886 1.50429 19.3846 8.29929 19.3846 12.8571C19.3846 15.9107 17.9566 18.6332 15.7338 20.3979C14.9262 21.0407 14.5385 21.7414 14.5385 22.3264V23.8886C14.5385 23.9636 14.5428 24.0343 14.5514 24.1007C14.6612 24.8979 15.0586 27.8582 15.4302 30.9279C15.7952 33.9396 16.1538 37.2246 16.1538 38.5714C16.1538 40.2764 15.4731 41.9115 14.2613 43.1171C13.0495 44.3227 11.406 45 9.69231 45C7.9786 45 6.33508 44.3227 5.12331 43.1171C3.91154 41.9115 3.23077 40.2764 3.23077 38.5714C3.23077 37.2214 3.58938 33.9429 3.95446 30.9279C4.326 27.8582 4.72338 24.8979 4.83323 24.1007L4.84615 23.8886V22.3264C4.84615 21.7414 4.45846 21.0407 3.65077 20.3979C2.51187 19.4946 1.59221 18.3476 0.960169 17.0421C0.328124 15.7366 -6.37305e-05 14.3062 9.28276e-09 12.8571C9.28276e-09 8.31536 1.58308 1.55572 1.65415 1.25358C1.73814 0.896276 1.94133 0.57783 2.23059 0.350174C2.51985 0.122517 2.8781 -0.000916223 3.24692 5.1207e-06C4.15154 5.1207e-06 4.88492 0.729648 4.88492 1.62965V11.2661C4.87219 11.4831 4.9043 11.7005 4.97929 11.9047C5.05427 12.109 5.17054 12.2957 5.3209 12.4535C5.47127 12.6113 5.65254 12.7367 5.85354 12.8221C6.05454 12.9075 6.27099 12.951 6.48953 12.9499C6.70807 12.9488 6.92407 12.9031 7.12418 12.8157C7.3243 12.7283 7.50429 12.6011 7.65304 12.4418C7.8018 12.2825 7.91616 12.0945 7.98906 11.8896C8.06196 11.6846 8.09187 11.4669 8.07692 11.25V1.60715C8.07692 1.18091 8.24712 0.772124 8.55006 0.470726C8.853 0.169329 9.26388 5.1207e-06 9.69231 5.1207e-06C10.1207 5.1207e-06 10.5316 0.169329 10.8346 0.470726C11.1375 0.772124 11.3077 1.18091 11.3077 1.60715V11.3336C11.3167 11.7556 11.4938 12.1567 11.8001 12.4487C12.1064 12.7408 12.5167 12.8998 12.9408 12.8909C13.365 12.8819 13.7682 12.7057 14.0617 12.401C14.3553 12.0963 14.5152 11.6881 14.5062 11.2661V1.62322C14.5062 0.726434 15.2363 5.1207e-06 16.1409 5.1207e-06C16.212 5.1207e-06 16.5286 5.18481e-06 16.8743 0.173577ZM24.2308 14.4643C24.2308 10.6281 25.7625 6.94907 28.489 4.2365C31.2155 1.52392 34.9134 5.1207e-06 38.7692 5.1207e-06C39.1977 5.1207e-06 39.6085 0.169329 39.9115 0.470726C40.2144 0.772124 40.3846 1.18091 40.3846 1.60715V20.8061L40.446 21.375C40.703 23.7739 40.9496 26.174 41.1858 28.575C41.5832 32.6121 42 37.1379 42 38.5714C42 40.2764 41.3192 41.9115 40.1075 43.1171C38.8957 44.3227 37.2522 45 35.5385 45C33.8248 45 32.1812 44.3227 30.9695 43.1171C29.7577 41.9115 29.0769 40.2764 29.0769 38.5714C29.0769 37.1379 29.4937 32.6121 29.8911 28.575C30.0946 26.5275 30.2982 24.5668 30.45 23.1139L30.5146 22.5H27.4615C26.6047 22.5 25.7829 22.1614 25.177 21.5586C24.5712 20.9558 24.2308 20.1382 24.2308 19.2857V14.4643Z" fill="white"/>
</svg>
