<svg width="45" height="45" viewBox="0 0 45 45" fill="none" xmlns="http://www.w3.org/2000/svg">
<rect x="1.59168" y="1.29089" width="42.2658" height="42.2658" rx="21.1329" stroke="white" stroke-width="1.9646"/>
<path d="M27.8103 15.5889C27.0546 14.7259 26.6381 13.6178 26.6382 12.4707H23.2214V26.1821C23.1956 26.9243 22.8825 27.6274 22.3482 28.1432C21.8139 28.6589 21.1001 28.947 20.3575 28.9465C18.7873 28.9465 17.4825 27.6638 17.4825 26.0715C17.4825 24.1696 19.3181 22.7432 21.209 23.3293V19.8351C17.3941 19.3264 14.0547 22.2898 14.0547 26.0715C14.0547 29.7537 17.1066 32.3744 20.3465 32.3744C23.8185 32.3744 26.6382 29.5547 26.6382 26.0715V19.1163C28.0237 20.1113 29.6872 20.6452 31.393 20.6423V17.2255C31.393 17.2255 29.3142 17.325 27.8103 15.5889Z" fill="white"/>
</svg>
