<svg width="45" height="45" viewBox="0 0 45 45" fill="none" xmlns="http://www.w3.org/2000/svg">
<rect x="1.41785" y="1.29089" width="42.2658" height="42.2658" rx="21.1329" stroke="white" stroke-width="1.9646"/>
<path d="M29.0749 21.2072C25.5363 19.1061 19.6201 18.8849 16.2473 19.9354C15.6944 20.1013 15.1414 19.7696 14.9756 19.2719C14.8097 18.719 15.1414 18.1661 15.6391 18.0002C19.5648 16.8391 26.0339 17.0603 30.1255 19.4931C30.6231 19.7696 30.789 20.4331 30.5125 20.9307C30.2361 21.3177 29.5726 21.4836 29.0749 21.2072ZM28.9644 24.3035C28.6879 24.6905 28.1903 24.8564 27.8032 24.5799C24.8175 22.7553 20.2836 22.2024 16.8002 23.3082C16.3579 23.4188 15.8602 23.1977 15.7496 22.7553C15.6391 22.313 15.8602 21.8154 16.3026 21.7048C20.3389 20.4884 25.3151 21.0966 28.7432 23.1976C29.0749 23.3635 29.2408 23.9164 28.9644 24.3035ZM27.6374 27.3445C27.4162 27.6763 27.0291 27.7869 26.6974 27.5657C24.0987 25.9622 20.8365 25.6305 16.9661 26.5152C16.579 26.6257 16.2473 26.3493 16.1367 26.0175C16.0261 25.6305 16.3026 25.2987 16.6343 25.1882C20.8365 24.2482 24.4857 24.6352 27.3609 26.4046C27.7479 26.5704 27.8032 27.0128 27.6374 27.3445ZM22.5505 11.3652C21.0983 11.3652 19.6603 11.6513 18.3187 12.207C16.977 12.7627 15.758 13.5773 14.7311 14.6041C12.6573 16.678 11.4922 19.4907 11.4922 22.4236C11.4922 25.3564 12.6573 28.1691 14.7311 30.243C15.758 31.2698 16.977 32.0844 18.3187 32.6401C19.6603 33.1959 21.0983 33.4819 22.5505 33.4819C25.4834 33.4819 28.2961 32.3168 30.3699 30.243C32.4438 28.1691 33.6089 25.3564 33.6089 22.4236C33.6089 20.9714 33.3228 19.5334 32.7671 18.1917C32.2114 16.8501 31.3968 15.631 30.3699 14.6041C29.3431 13.5773 28.124 12.7627 26.7824 12.207C25.4407 11.6513 24.0027 11.3652 22.5505 11.3652Z" fill="white"/>
</svg>
