<svg width="45" height="45" viewBox="0 0 45 45" fill="none" xmlns="http://www.w3.org/2000/svg">
<rect x="1.47644" y="1.29089" width="42.2658" height="42.2658" rx="21.1329" stroke="white" stroke-width="1.9646"/>
<path d="M20.3969 25.7412L26.1357 22.4239L20.3969 19.1066V25.7412ZM33.1794 17.0831C33.3232 17.6028 33.4227 18.2994 33.489 19.184C33.5665 20.0686 33.5996 20.8316 33.5996 21.4951L33.666 22.4239C33.666 24.8455 33.489 26.6258 33.1794 27.7647C32.903 28.7599 32.2617 29.4013 31.2665 29.6777C30.7468 29.8214 29.7958 29.921 28.3362 29.9873C26.8987 30.0647 25.5829 30.0979 24.3665 30.0979L22.6084 30.1642C17.9752 30.1642 15.0892 29.9873 13.9503 29.6777C12.9551 29.4013 12.3138 28.7599 12.0373 27.7647C11.8936 27.245 11.794 26.5484 11.7277 25.6638C11.6503 24.7792 11.6171 24.0162 11.6171 23.3527L11.5508 22.4239C11.5508 20.0023 11.7277 18.222 12.0373 17.0831C12.3138 16.0879 12.9551 15.4466 13.9503 15.1701C14.47 15.0264 15.4209 14.9269 16.8805 14.8605C18.318 14.7831 19.6339 14.7499 20.8502 14.7499L22.6084 14.6836C27.2415 14.6836 30.1275 14.8605 31.2665 15.1701C32.2617 15.4466 32.903 16.0879 33.1794 17.0831Z" fill="white"/>
</svg>
