<?xml version="1.0" encoding="UTF-8"?>
<svg id="Layer_1" data-name="Layer 1" xmlns="http://www.w3.org/2000/svg" xmlns:xlink="http://www.w3.org/1999/xlink" viewBox="0 0 32 32">
  <defs>
    <style>
      .cls-1 {
        fill: url(#linear-gradient-15);
      }

      .cls-2 {
        fill: url(#linear-gradient-13);
      }

      .cls-3 {
        fill: url(#linear-gradient-2);
      }

      .cls-4 {
        fill: url(#linear-gradient-10);
      }

      .cls-5 {
        fill: url(#linear-gradient-12);
      }

      .cls-6 {
        fill: none;
      }

      .cls-7 {
        fill: url(#linear-gradient-4);
      }

      .cls-8 {
        fill: url(#linear-gradient-3);
      }

      .cls-9 {
        fill: url(#linear-gradient-5);
      }

      .cls-10 {
        fill: url(#linear-gradient-8);
      }

      .cls-11 {
        fill: url(#linear-gradient-14);
      }

      .cls-12 {
        fill: url(#linear-gradient-20);
      }

      .cls-13 {
        fill: url(#linear-gradient-17);
      }

      .cls-14 {
        fill: url(#linear-gradient-7);
      }

      .cls-15 {
        fill: url(#linear-gradient-9);
      }

      .cls-16 {
        fill: url(#linear-gradient-11);
      }

      .cls-17 {
        fill: url(#linear-gradient-19);
      }

      .cls-18 {
        fill: url(#linear-gradient-6);
      }

      .cls-19 {
        fill: url(#linear-gradient-21);
      }

      .cls-20 {
        fill: url(#linear-gradient-16);
      }

      .cls-21 {
        fill: url(#linear-gradient);
      }

      .cls-22 {
        clip-path: url(#clippath);
      }

      .cls-23 {
        fill: url(#linear-gradient-18);
      }
    </style>
    <clipPath id="clippath">
      <polyline class="cls-6" points=".83 .28 31.17 .28 31.17 31.72 .83 31.72 .83 .28"/>
    </clipPath>
    <linearGradient id="linear-gradient" x1="-1369.53" y1="151.64" x2="-1369.25" y2="151.64" gradientTransform="translate(-157819.05 -17475.69) rotate(-180) scale(115.26 -115.26)" gradientUnits="userSpaceOnUse">
      <stop offset="0" stop-color="#eac476"/>
      <stop offset=".5" stop-color="#fef0ad"/>
      <stop offset="1" stop-color="#eac476"/>
    </linearGradient>
    <linearGradient id="linear-gradient-2" x1="-1369.53" y1="151.64" x2="-1369.25" y2="151.64" gradientTransform="translate(-157819.05 -17475.69) rotate(-180) scale(115.26 -115.26)" gradientUnits="userSpaceOnUse">
      <stop offset="0" stop-color="#eac476"/>
      <stop offset=".5" stop-color="#fef0ad"/>
      <stop offset="1" stop-color="#eac476"/>
    </linearGradient>
    <linearGradient id="linear-gradient-3" x1="-1369.53" y1="151.65" x2="-1369.25" y2="151.65" gradientTransform="translate(-157819.05 -17475.69) rotate(-180) scale(115.26 -115.26)" gradientUnits="userSpaceOnUse">
      <stop offset="0" stop-color="#eac476"/>
      <stop offset=".5" stop-color="#fef0ad"/>
      <stop offset="1" stop-color="#eac476"/>
    </linearGradient>
    <linearGradient id="linear-gradient-4" x1="-1369.53" y1="151.81" x2="-1369.25" y2="151.81" gradientTransform="translate(-157819.05 -17475.69) rotate(-180) scale(115.26 -115.26)" gradientUnits="userSpaceOnUse">
      <stop offset="0" stop-color="#eac476"/>
      <stop offset=".5" stop-color="#fef0ad"/>
      <stop offset="1" stop-color="#eac476"/>
    </linearGradient>
    <linearGradient id="linear-gradient-5" x1="-1369.53" y1="151.84" x2="-1369.25" y2="151.84" gradientTransform="translate(-157819.05 -17475.69) rotate(-180) scale(115.26 -115.26)" gradientUnits="userSpaceOnUse">
      <stop offset="0" stop-color="#eac476"/>
      <stop offset=".5" stop-color="#fef0ad"/>
      <stop offset="1" stop-color="#eac476"/>
    </linearGradient>
    <linearGradient id="linear-gradient-6" x1="-1369.53" y1="151.87" x2="-1369.25" y2="151.87" gradientTransform="translate(-157819.05 -17475.69) rotate(-180) scale(115.26 -115.26)" gradientUnits="userSpaceOnUse">
      <stop offset="0" stop-color="#eac476"/>
      <stop offset=".5" stop-color="#fef0ad"/>
      <stop offset="1" stop-color="#eac476"/>
    </linearGradient>
    <linearGradient id="linear-gradient-7" x1="-1369.53" y1="151.87" x2="-1369.25" y2="151.87" gradientTransform="translate(-157819.05 -17475.69) rotate(-180) scale(115.26 -115.26)" gradientUnits="userSpaceOnUse">
      <stop offset="0" stop-color="#eac476"/>
      <stop offset=".5" stop-color="#fef0ad"/>
      <stop offset="1" stop-color="#eac476"/>
    </linearGradient>
    <linearGradient id="linear-gradient-8" x1="-1369.53" y1="151.84" x2="-1369.25" y2="151.84" gradientTransform="translate(-157819.05 -17475.69) rotate(-180) scale(115.26 -115.26)" gradientUnits="userSpaceOnUse">
      <stop offset="0" stop-color="#eac476"/>
      <stop offset=".5" stop-color="#fef0ad"/>
      <stop offset="1" stop-color="#eac476"/>
    </linearGradient>
    <linearGradient id="linear-gradient-9" x1="-1369.53" y1="151.85" x2="-1369.25" y2="151.85" gradientTransform="translate(-157819.05 -17475.69) rotate(-180) scale(115.26 -115.26)" gradientUnits="userSpaceOnUse">
      <stop offset="0" stop-color="#eac476"/>
      <stop offset=".5" stop-color="#fef0ad"/>
      <stop offset="1" stop-color="#eac476"/>
    </linearGradient>
    <linearGradient id="linear-gradient-10" x1="-1369.53" y1="151.75" x2="-1369.25" y2="151.75" gradientTransform="translate(-157819.05 -17475.69) rotate(-180) scale(115.26 -115.26)" gradientUnits="userSpaceOnUse">
      <stop offset="0" stop-color="#eac476"/>
      <stop offset=".5" stop-color="#fef0ad"/>
      <stop offset="1" stop-color="#eac476"/>
    </linearGradient>
    <linearGradient id="linear-gradient-11" x1="-1369.53" y1="151.76" x2="-1369.25" y2="151.76" gradientTransform="translate(-157819.05 -17475.69) rotate(-180) scale(115.26 -115.26)" gradientUnits="userSpaceOnUse">
      <stop offset="0" stop-color="#eac476"/>
      <stop offset=".5" stop-color="#fef0ad"/>
      <stop offset="1" stop-color="#eac476"/>
    </linearGradient>
    <linearGradient id="linear-gradient-12" x1="-1369.53" y1="151.79" x2="-1369.25" y2="151.79" gradientTransform="translate(-157819.05 -17475.69) rotate(-180) scale(115.26 -115.26)" gradientUnits="userSpaceOnUse">
      <stop offset="0" stop-color="#eac476"/>
      <stop offset=".5" stop-color="#fef0ad"/>
      <stop offset="1" stop-color="#eac476"/>
    </linearGradient>
    <linearGradient id="linear-gradient-13" x1="-1369.53" y1="151.76" x2="-1369.25" y2="151.76" gradientTransform="translate(-157819.05 -17475.69) rotate(-180) scale(115.26 -115.26)" gradientUnits="userSpaceOnUse">
      <stop offset="0" stop-color="#eac476"/>
      <stop offset=".5" stop-color="#fef0ad"/>
      <stop offset="1" stop-color="#eac476"/>
    </linearGradient>
    <linearGradient id="linear-gradient-14" x1="-1369.53" y1="151.79" x2="-1369.25" y2="151.79" gradientTransform="translate(-157819.05 -17475.69) rotate(-180) scale(115.26 -115.26)" gradientUnits="userSpaceOnUse">
      <stop offset="0" stop-color="#eac476"/>
      <stop offset=".5" stop-color="#fef0ad"/>
      <stop offset="1" stop-color="#eac476"/>
    </linearGradient>
    <linearGradient id="linear-gradient-15" x1="-1369.53" y1="151.66" x2="-1369.25" y2="151.66" gradientTransform="translate(-157819.05 -17475.69) rotate(-180) scale(115.26 -115.26)" gradientUnits="userSpaceOnUse">
      <stop offset="0" stop-color="#eac476"/>
      <stop offset=".5" stop-color="#fef0ad"/>
      <stop offset="1" stop-color="#eac476"/>
    </linearGradient>
    <linearGradient id="linear-gradient-16" x1="-1369.53" y1="151.67" x2="-1369.25" y2="151.67" gradientTransform="translate(-157819.05 -17475.69) rotate(-180) scale(115.26 -115.26)" gradientUnits="userSpaceOnUse">
      <stop offset="0" stop-color="#eac476"/>
      <stop offset=".5" stop-color="#fef0ad"/>
      <stop offset="1" stop-color="#eac476"/>
    </linearGradient>
    <linearGradient id="linear-gradient-17" x1="-1369.53" y1="151.66" x2="-1369.25" y2="151.66" gradientTransform="translate(-157819.05 -17475.69) rotate(-180) scale(115.26 -115.26)" gradientUnits="userSpaceOnUse">
      <stop offset="0" stop-color="#eac476"/>
      <stop offset=".5" stop-color="#fef0ad"/>
      <stop offset="1" stop-color="#eac476"/>
    </linearGradient>
    <linearGradient id="linear-gradient-18" x1="-1369.53" y1="151.71" x2="-1369.25" y2="151.71" gradientTransform="translate(-157819.05 -17475.69) rotate(-180) scale(115.26 -115.26)" gradientUnits="userSpaceOnUse">
      <stop offset="0" stop-color="#eac476"/>
      <stop offset=".5" stop-color="#fef0ad"/>
      <stop offset="1" stop-color="#eac476"/>
    </linearGradient>
    <linearGradient id="linear-gradient-19" x1="-1369.53" y1="151.77" x2="-1369.25" y2="151.77" gradientTransform="translate(-157819.05 -17475.69) rotate(-180) scale(115.26 -115.26)" gradientUnits="userSpaceOnUse">
      <stop offset="0" stop-color="#eac476"/>
      <stop offset=".5" stop-color="#fef0ad"/>
      <stop offset="1" stop-color="#eac476"/>
    </linearGradient>
    <linearGradient id="linear-gradient-20" x1="-1369.53" y1="151.77" x2="-1369.25" y2="151.77" gradientTransform="translate(-157819.05 -17475.69) rotate(-180) scale(115.26 -115.26)" gradientUnits="userSpaceOnUse">
      <stop offset="0" stop-color="#eac476"/>
      <stop offset=".5" stop-color="#fef0ad"/>
      <stop offset="1" stop-color="#eac476"/>
    </linearGradient>
    <linearGradient id="linear-gradient-21" x1="-1369.53" y1="151.71" x2="-1369.25" y2="151.71" gradientTransform="translate(-157819.05 -17475.69) rotate(-180) scale(115.26 -115.26)" gradientUnits="userSpaceOnUse">
      <stop offset="0" stop-color="#eac476"/>
      <stop offset=".5" stop-color="#fef0ad"/>
      <stop offset="1" stop-color="#eac476"/>
    </linearGradient>
  </defs>
  <g class="cls-22">
    <path class="cls-21" d="M16.36.28h0c0,.06-.02.14-.05.22-.05.13-.11.23-.16.29-.07-.04-.16-.1-.25-.18-.06-.06-.11-.12-.15-.17-.15.16-.49.57-.49,1.12,0,.8.73,1.58,1.8,1.79-.09-.14-.17-.24-.22-.31-.1-.13-.16-.18-.18-.28,0-.07,0-.19.07-.23.02,0,.03-.01.05-.01.06,0,.13.04.17.08.08.07.09.16.12.28.03.1.08.24.17.39.66-1.55.09-2.33.09-2.33-.31-.43-.75-.6-.96-.66"/>
    <path class="cls-3" d="M19.18,1.1c-.15,0-.3.02-.46.08-.75.26-1.26,1.2-1.11,2.28.1-.13.17-.23.22-.31.08-.14.11-.21.21-.26.04-.02.09-.04.14-.04.03,0,.07,0,.09.03.06.06.04.17,0,.23-.04.1-.12.13-.22.2-.08.06-.2.15-.32.29.12,0,.23.01.34.01,1.42,0,1.9-.69,1.9-.69.31-.43.33-.9.32-1.12-.06.01-.13.02-.21.02,0,0,0,0-.01,0-.14,0-.25-.03-.33-.06.01-.08.04-.19.09-.3.04-.08.08-.14.11-.19-.14-.06-.42-.18-.77-.18"/>
    <polyline class="cls-8" points="17.41 3.42 17.33 3.55 17.29 3.56 17.17 3.43 17.17 3.44 17.18 3.61 17.15 3.64 17 3.61 16.99 3.62 17.1 3.75 17.09 3.78 16.93 3.86 16.93 3.86 17.1 3.9 17.12 3.93 17.04 4.07 17.05 4.08 17.2 4.02 17.23 4.04 17.26 4.22 17.26 4.22 17.35 4.07 17.39 4.06 17.5 4.18 17.51 4.17 17.5 4.01 17.53 3.99 17.7 4.02 17.7 4.01 17.58 3.88 17.59 3.84 17.73 3.77 17.73 3.76 17.58 3.72 17.56 3.69 17.65 3.53 17.65 3.53 17.48 3.6 17.45 3.58 17.43 3.42 17.41 3.42"/>
    <path class="cls-7" d="M25.17,19.53c-.35.12-1.22.46-1.66,1.31-.64,1.22-.18,3,1.28,4.19-.02-.28-.06-.5-.09-.65-.06-.27-.1-.4-.04-.57.04-.11.14-.29.29-.29.14,0,.25.17.29.28.06.17,0,.31-.05.52-.04.17-.08.42-.06.74,2.26-1.83,2.03-3.49,2.03-3.49-.11-.9-.65-1.52-.92-1.79-.06.09-.15.19-.26.3-.18.16-.36.26-.49.31-.08-.12-.17-.28-.24-.49-.05-.14-.07-.27-.09-.38"/>
    <path class="cls-9" d="M28.75,23.05c-1.26,0-2.59.99-3.19,2.6.26-.11.45-.22.59-.29.24-.14.34-.23.51-.23,0,0,0,0,.01,0,.12,0,.32.04.36.18.05.13-.08.29-.18.36-.15.11-.3.1-.5.12-.18.02-.42.06-.72.18,1.25.79,2.25.98,2.93.98s1.02-.18,1.02-.18c.82-.4,1.23-1.1,1.4-1.45-.1-.03-.23-.08-.36-.15-.21-.12-.36-.26-.45-.36.09-.11.21-.25.39-.38.12-.09.23-.16.33-.2-.22-.29-.83-1-1.78-1.15-.12-.02-.24-.03-.37-.03"/>
    <path class="cls-18" d="M25.41,26.68c.2.21.37.36.49.45.22.18.34.25.4.42.04.11.07.32-.04.41-.04.03-.09.04-.14.04-.1,0-.2-.04-.27-.09-.16-.1-.2-.25-.3-.44-.08-.16-.21-.38-.43-.62-.57,2.87.68,4.03.68,4.03.67.64,1.49.79,1.87.83,0-.11-.01-.24.01-.4.03-.24.11-.43.18-.55.14.04.31.11.5.23.13.08.23.17.31.24.2-.31.64-1.13.44-2.08-.29-1.36-1.8-2.48-3.71-2.49"/>
    <path class="cls-14" d="M24.13,26.47c-2.88.44-3.51,1.99-3.51,1.99-.35.84-.21,1.64-.11,2.01.1-.05.22-.09.37-.12.13-.03.25-.04.36-.04.08,0,.16,0,.22.01,0,.14,0,.33-.04.54-.03.15-.07.27-.12.37.15.03.41.08.71.08.41,0,.92-.08,1.38-.37,1.17-.73,1.67-2.51,1-4.27-.12.25-.2.46-.25.6-.09.27-.11.4-.25.51-.07.06-.19.13-.29.13-.04,0-.07,0-.1-.03-.12-.07-.13-.27-.1-.39.04-.18.16-.27.3-.42.12-.13.28-.32.42-.61"/>
    <path class="cls-10" d="M21.01,22.79c-.78,0-1.39.33-1.68.51.07.08.15.19.23.32.12.21.17.41.19.54-.13.05-.31.1-.53.12-.07,0-.13,0-.19,0-.07,0-.14,0-.2,0,.04.37.18,1.29.91,1.91.48.41,1.12.62,1.81.62.83,0,1.75-.3,2.56-.93-.28-.04-.5-.05-.65-.06-.28,0-.41.01-.56-.08-.1-.06-.25-.2-.21-.35.03-.14.22-.2.34-.22.02,0,.03,0,.05,0,.16,0,.27.08.44.16.16.08.39.17.71.22-1.28-2.62-2.94-2.76-2.94-2.76-.09,0-.18-.01-.27-.01"/>
    <path class="cls-15" d="M24.89,25.26l-.11.25s-.03.03-.06.03c-.02,0-.03,0-.05-.01l-.17-.14-.03.02.06.24s-.02.06-.05.06c0,0,0,0,0,0h-.29s0,0,0,0l.23.2v.06s-.23.15-.23.15v.03s.25.02.25.02c.04,0,.06.04.05.07l-.1.27h0s.23-.13.23-.13c.01,0,.03-.01.04-.01.03,0,.05.01.06.03l.06.23h.04s.09-.21.09-.21c0-.02.03-.03.06-.03.02,0,.03,0,.04.01l.21.16h0s-.06-.29-.06-.29c0-.03.02-.06.05-.06,0,0,0,0,0,0h.24s.01-.02.01-.02l-.2-.18v-.06s.26-.17.26-.17h0s-.29-.03-.29-.03c-.04,0-.06-.04-.05-.07l.09-.23-.03-.02-.19.11s-.03.01-.04.01c-.03,0-.05-.01-.06-.04l-.07-.26h-.01"/>
    <path class="cls-4" d="M14.2,8.09c-.58.52-2.89,2.75-3.21,6.38-.41,4.67,2.81,7.74,3.21,8.11.44-.37,3.29-2.88,3.36-7.07.08-4.4-2.95-7.07-3.36-7.42"/>
    <path class="cls-16" d="M5.94,10.78c-.13.65-.72,3.79,1.13,6.94,1.86,3.16,4.84,4.03,5.45,4.19-.6-.6-1.86-2.03-2.45-4.29-.51-1.94-.29-3.59-.12-4.42-.46-.47-1.12-1.06-2.02-1.58-.74-.43-1.44-.68-1.99-.84"/>
    <path class="cls-5" d="M5.44,16.15h-1.59c.1.68.49,2.81,2.35,4.52,1.86,1.73,4.09,2,5.33,2,.46,0,.78-.04.91-.05-.89-.23-2.77-.85-4.5-2.52-1.52-1.48-2.2-3.09-2.5-3.95"/>
    <path class="cls-2" d="M22.27,10.78c-.55.16-1.24.41-1.99.84-.9.52-1.57,1.1-2.02,1.58.17.84.39,2.48-.12,4.42-.59,2.27-1.85,3.69-2.45,4.29.61-.16,3.59-1.04,5.45-4.19,1.85-3.14,1.27-6.29,1.13-6.94"/>
    <path class="cls-11" d="M24.49,16.15h-1.59c-.29.86-.97,2.47-2.5,3.95-1.73,1.68-3.61,2.29-4.5,2.52.13.02.45.05.91.05,1.24,0,3.47-.27,5.33-2,1.85-1.71,2.25-3.85,2.35-4.52"/>
    <path class="cls-1" d="M19.03,3.71c-.39,0-.81.1-1.21.31.16.05.29.08.37.1.16.03.24.03.32.1.05.05.12.14.09.22-.03.07-.13.09-.2.09,0,0-.01,0-.02,0-.11,0-.17-.07-.27-.14-.08-.06-.21-.14-.39-.2.49,1.62,1.45,1.87,1.45,1.87.16.04.31.06.45.06.32,0,.59-.09.74-.15-.03-.05-.07-.12-.1-.2-.05-.13-.06-.25-.06-.33.06-.01.14-.02.22-.02.03,0,.06,0,.09,0,.09,0,.16.02.23.04.01-.21.02-.75-.34-1.18-.31-.36-.81-.57-1.37-.57"/>
    <path class="cls-20" d="M17.11,4.26c-1.35,1.01-1.25,1.98-1.25,1.98.05.52.34.89.49,1.06.04-.05.09-.11.16-.17.11-.09.21-.14.29-.17.04.07.09.17.13.29.02.08.04.16.04.22.21-.06.71-.24.99-.72.4-.69.17-1.73-.66-2.45,0,.16.02.29.04.38.03.16.05.23.01.33-.02.06-.09.16-.17.16,0,0,0,0,0,0-.08,0-.14-.1-.16-.17-.03-.1,0-.18.04-.3.03-.1.05-.24.05-.43"/>
    <path class="cls-13" d="M15.13,3.1c-.3,0-.47.07-.47.07-.49.2-.75.59-.86.79.06.02.13.05.2.1.12.07.2.16.25.22-.05.06-.13.14-.24.21-.07.05-.14.08-.2.11.12.18.44.61.98.73.1.02.2.03.3.03.7,0,1.46-.52,1.85-1.39-.15.05-.27.11-.35.15-.13.07-.2.11-.29.11,0,0-.02,0-.02,0-.07,0-.18-.04-.2-.12-.02-.08.06-.16.12-.2.09-.06.17-.05.3-.05.1,0,.25-.02.42-.08-.77-.56-1.39-.68-1.78-.68"/>
    <path class="cls-23" d="M30.15,8.95c-.45,0-1.33.11-1.99.85-.93,1.03-.59,2.34-.57,2.43.06.02.37.1.79.1.51,0,1.19-.12,1.79-.61.8-.65.96-1.54,1-1.77h0c-.13-.04-.3-.08-.5-.1-.06,0-.12,0-.18,0-.15,0-.28.02-.39.03.08-.12.18-.28.25-.5.05-.15.08-.29.09-.41-.03,0-.13-.02-.29-.02"/>
    <path class="cls-17" d="M28.53,15.34c-.23.05-1.14.3-1.71,1.14-.87,1.27-.19,2.75-.16,2.82.05,0,.16.02.32.02.5,0,1.45-.11,2.24-.87.96-.92.95-2.15.95-2.35-.06.05-.14.11-.23.17-.12.07-.22.11-.31.14.02-.13.05-.31.07-.53.03-.32.02-.38-.02-.41-.01,0-.03-.01-.05-.01-.08,0-.2.08-.47.22-.19.1-.34.17-.45.22-.05-.05-.1-.16-.14-.3-.03-.09-.04-.19-.04-.25"/>
    <path class="cls-12" d="M13.35,3.43C6.38,3.9.87,9.69.83,16.77v.14c.01,2.33.62,4.79,1.95,7.25,1.02,1.88,3.85,4.23,6.37,5.17,1.74.65,3.46.94,5.1.94,1.99,0,3.89-.44,5.59-1.22.22-.6.56-1.14,1-1.58-.34-.03-.67-.09-.99-.19-1.7.91-3.61,1.4-5.59,1.4-.85,0-1.7-.09-2.57-.27-1.39-.29-2.65-.83-3.72-1.52-3.54-2.28-5.55-6.01-5.55-10.05,0-3.16,1.23-6.13,3.47-8.37,2.03-2.03,4.68-3.24,7.52-3.44-.07-.31-.11-.63-.11-.96,0-.22.02-.43.05-.64"/>
    <path class="cls-19" d="M21.42,5.46c-.18.51-.46.97-.81,1.37.73.46,1.41,1.01,2.03,1.63,1.99,1.99,3.19,4.57,3.42,7.35.34-.54.85-.97,1.45-1.21-.64-3.85-2.92-7.14-6.09-9.14"/>
  </g>
</svg>