<?xml version="1.0" encoding="UTF-8"?>
<svg id="Layer_1" data-name="Layer 1" xmlns="http://www.w3.org/2000/svg" xmlns:xlink="http://www.w3.org/1999/xlink" viewBox="0 0 80 80">
  <defs>
    <style>
      .cls-1 {
        mask: url(#mask-1);
      }

      .cls-2 {
        fill: #fff;
      }

      .cls-3 {
        mask: url(#mask);
      }

      .cls-4 {
        fill: url(#linear-gradient);
      }
    </style>
    <mask id="mask-1" x=".72" y="-1.62" width="79.57" height="83.76" maskUnits="userSpaceOnUse">
      <g id="mask0_360_168" data-name="mask0 360 168">
        <path class="cls-2" d="M77.33,48.87c-.21-.12-5.14-3.03-9.69-1.5-.42.14-.81.35-1.19.55.28-.98.54-1.97.72-2.98,1.72-.03,5.39-.39,7.82-2.83,3.2-3.21,2.8-8.57,2.78-8.8-.05-.65-.57-1.17-1.22-1.22-.23-.01-5.59-.38-8.79,2.82-.16.16-.27.35-.41.52-.14-.98-.34-1.95-.58-2.91,1.28-.72,4.43-2.8,5.34-6.18,1.11-4.16-1.75-8.38-1.87-8.56-.37-.54-1.07-.72-1.67-.45-.19.09-4.44,2.19-5.74,6.07-.59-.92-1.25-1.79-1.94-2.64.99-1.12,2.93-3.71,2.78-6.75-.19-3.96-3.88-6.86-4.04-6.98-.51-.4-1.25-.36-1.72.08-.14.14-3.54,3.38-3.35,7.34,0,.19.06.37.09.55-1.42-.98-2.93-1.85-4.53-2.58-.67-.31-1.46-.01-1.76.66-.31.67,0,1.46.66,1.76,9.7,4.42,15.97,14.14,15.97,24.76,0,12.86-9.13,24.07-21.71,26.65-1.12.23-2.21.54-3.24.91-1.04-.38-2.12-.68-3.24-.91-12.57-2.58-21.71-13.78-21.71-26.65,0-10.63,6.27-20.35,15.97-24.76.67-.3.96-1.09.66-1.76-.31-.67-1.09-.96-1.76-.66-1.6.73-3.11,1.61-4.53,2.58.02-.19.08-.36.09-.55.19-3.96-3.2-7.2-3.35-7.34-.48-.45-1.21-.48-1.72-.08-.16.12-3.85,3.02-4.04,6.98-.15,3.03,1.79,5.63,2.78,6.75-.69.85-1.35,1.72-1.94,2.64-1.3-3.88-5.55-5.98-5.74-6.07-.59-.28-1.29-.09-1.67.45-.12.18-2.98,4.4-1.87,8.56.9,3.38,4.06,5.45,5.34,6.18-.24.95-.44,1.92-.58,2.91-.14-.17-.26-.36-.41-.52-3.19-3.21-8.55-2.83-8.79-2.82-.65.05-1.17.57-1.22,1.22-.02.23-.41,5.59,2.78,8.8,2.43,2.45,6.1,2.81,7.82,2.83.18,1.01.44,2.01.72,2.98-.38-.2-.77-.41-1.19-.55-4.55-1.53-9.48,1.38-9.69,1.5-.56.34-.79,1.03-.55,1.64.09.22,2.26,5.51,6.83,7.04.95.31,1.91.44,2.83.44,2.44,0,4.65-.86,5.87-1.43.57.83,1.2,1.62,1.85,2.39-.03,0-.06-.01-.09-.01-4.87,0-8.67,4.38-8.83,4.57-.42.5-.42,1.23,0,1.72.16.19,3.95,4.57,8.83,4.57,3.99,0,7.21-2.9,8.36-4.07,2.59,1.44,5.4,2.53,8.41,3.14.07.01.12.04.19.05-1.6.95-3.06,2.07-4.29,3.42-.5.54-.46,1.38.08,1.88.26.23.57.35.9.35.36,0,.72-.14.98-.43,1.59-1.74,3.62-3.08,5.92-4.05,2.3.97,4.33,2.31,5.92,4.05.26.28.62.43.98.43.32,0,.64-.12.9-.35.54-.5.58-1.33.08-1.88-1.23-1.34-2.69-2.46-4.29-3.42.06-.01.12-.04.19-.05,3.01-.62,5.83-1.71,8.41-3.14,1.14,1.17,4.37,4.07,8.36,4.07,4.88,0,8.67-4.38,8.83-4.57.42-.5.42-1.23,0-1.72-.16-.19-3.95-4.57-8.83-4.57-.03,0-.06.01-.09.01.65-.77,1.28-1.56,1.85-2.39,1.22.58,3.43,1.43,5.87,1.43.93,0,1.89-.12,2.84-.44,4.56-1.53,6.73-6.82,6.82-7.04.24-.61.01-1.3-.55-1.64h.01ZM69.64,36.78c1.55-1.56,4.01-1.95,5.47-2.04-.08,1.47-.46,3.92-2.01,5.48-1.55,1.56-4,1.95-5.47,2.04.08-1.47.46-3.92,2.01-5.48ZM57.23,14.33c-.08-1.72.93-3.36,1.69-4.35.85.9,2.02,2.44,2.11,4.16.08,1.72-.93,3.36-1.69,4.34-.85-.91-2.02-2.45-2.11-4.16ZM19.07,14.15c.08-1.72,1.25-3.26,2.11-4.16.76.98,1.78,2.62,1.69,4.35-.08,1.72-1.25,3.26-2.11,4.16-.76-.99-1.78-2.63-1.69-4.34ZM6.99,40.23c-1.55-1.56-1.93-4.02-2.01-5.48,1.47.09,3.92.48,5.47,2.04,1.55,1.56,1.93,4.01,2.01,5.48-1.47-.09-3.92-.48-5.47-2.04ZM10.55,25.65c-.52-1.94.27-4.05.89-5.29,1.15.76,2.89,2.2,3.42,4.14.52,1.94-.27,4.05-.89,5.29-1.15-.76-2.89-2.2-3.41-4.14ZM9.89,55.03c-2.32-.78-3.89-3.05-4.66-4.43,1.44-.64,4.07-1.49,6.38-.72,2.32.78,3.89,3.05,4.66,4.42-1.44.63-4.07,1.5-6.38.72ZM19.5,67.13c-2.5,0-4.76-1.7-5.94-2.78,1.18-1.07,3.45-2.77,5.94-2.77s4.76,1.7,5.95,2.77c-1.19,1.08-3.45,2.78-5.95,2.78ZM60.59,61.58c2.5,0,4.76,1.69,5.94,2.77-1.19,1.07-3.46,2.78-5.94,2.78s-4.76-1.7-5.95-2.78c1.19-1.08,3.45-2.77,5.95-2.77h0ZM65.24,24.5c.52-1.94,2.26-3.38,3.42-4.14.61,1.24,1.41,3.36.89,5.29-.52,1.94-2.26,3.38-3.41,4.14-.61-1.24-1.41-3.36-.89-5.29h0ZM70.21,55.03c-2.32.79-4.94-.09-6.38-.72.77-1.38,2.35-3.64,4.66-4.42,2.31-.77,4.94.09,6.38.72-.77,1.38-2.34,3.65-4.66,4.42Z"/>
        <path class="cls-2" d="M23.67,35.63c-.27.81-.07,1.69.55,2.3l6.31,6.13-1.49,8.67c-.15.83.18,1.66.85,2.16.69.51,1.59.58,2.36.18l7.8-4.1,7.79,4.11c.33.17.68.25,1.03.25.47,0,.93-.15,1.32-.44.68-.5,1-1.33.86-2.15l-1.49-8.68,6.31-6.13h.01c.61-.62.81-1.5.54-2.31-.27-.8-.96-1.36-1.77-1.47l-8.72-1.28-3.9-7.88c-.74-1.53-3.24-1.52-3.97,0l-3.9,7.88-8.7,1.28c-.83.11-1.52.68-1.78,1.48h0ZM35.23,35.4c.43-.06.8-.34,1-.73l3.81-7.71,3.81,7.71c.19.39.57.66,1,.73l8.52,1.25-6.17,6c-.31.31-.46.74-.38,1.18l1.46,8.49-7.6-4.01c-.39-.21-.85-.21-1.24,0l-7.63,4.02,1.46-8.49c.07-.43-.07-.87-.38-1.18l-6.17-6,8.52-1.25h0Z"/>
      </g>
    </mask>
    <mask id="mask" x="-6.79" y="-9.89" width="94.5" height="110.05" maskUnits="userSpaceOnUse">
      <g class="cls-1">
        <rect class="cls-2" x=".72" y="-1.62" width="79.57" height="83.76"/>
      </g>
    </mask>
    <linearGradient id="linear-gradient" x1="87.71" y1="45.14" x2="-6.79" y2="45.14" gradientUnits="userSpaceOnUse">
      <stop offset="0" stop-color="#eac476"/>
      <stop offset=".5" stop-color="#fef0ad"/>
      <stop offset="1" stop-color="#eac476"/>
    </linearGradient>
  </defs>
  <g class="cls-3">
    <rect class="cls-4" x="-6.79" y="-9.89" width="94.5" height="110.05"/>
  </g>
</svg>