<?xml version="1.0" encoding="UTF-8"?>
<svg id="Layer_1" data-name="Layer 1" xmlns="http://www.w3.org/2000/svg" xmlns:xlink="http://www.w3.org/1999/xlink" viewBox="0 0 80 80">
  <defs>
    <style>
      .cls-1 {
        fill: #fff;
      }

      .cls-2 {
        mask: url(#mask);
      }

      .cls-3 {
        fill: none;
        stroke: #fff;
        stroke-linecap: round;
        stroke-linejoin: round;
        stroke-width: 2.89px;
      }
    </style>
    <mask id="mask" x="5.31" y="3.79" width="71.77" height="71.77" maskUnits="userSpaceOnUse">
      <g id="mask0_360_145" data-name="mask0 360 145">
        <path class="cls-3" d="M31.76,11.76c1.5,0,7.52,13.54,7.52,15.04,0,3.01-4.51,6.02-6.02,9.03-1.5,3.01,1.5,6.02,4.51,9.03,1.17,1.17,6.02,6.02,9.03,4.51,3.01-1.5,6.02-6.02,9.03-6.02,1.5,0,15.04,6.02,15.04,7.52,0,6.02-4.51,10.53-9.03,12.03-4.51,1.5-7.52,1.5-13.54,0-6.02-1.5-10.53-3.01-18.05-10.53-7.52-7.52-9.03-12.03-10.53-18.05-1.5-6.02-1.5-9.03,0-13.54,1.5-4.51,6.02-9.03,12.03-9.03Z"/>
      </g>
    </mask>
  </defs>
  <g class="cls-2">
    <rect class="cls-1" x="5.31" y="3.79" width="71.77" height="71.77"/>
  </g>
</svg>