<?xml version="1.0" encoding="UTF-8"?>
<svg id="Layer_1" data-name="Layer 1" xmlns="http://www.w3.org/2000/svg" xmlns:xlink="http://www.w3.org/1999/xlink" viewBox="0 0 276 110.42">
  <defs>
    <style>
      .cls-1 {
        fill: #fff;
      }

      .cls-2 {
        fill: none;
      }

      .cls-3 {
        clip-path: url(#clippath);
      }
    </style>
    <clipPath id="clippath">
      <rect class="cls-2" x="22.2" y="9.73" width="231.59" height="90.96"/>
    </clipPath>
  </defs>
  <g class="cls-3">
    <g>
      <path class="cls-1" d="M76.62,9.74c24.23.39,44.01,19.74,45.13,43.64-5.42.77-10.39,4.8-11.37,10.31,3.12,1.84,6.87,2.04,10.33,1.18-1.2,5.5-2.97,9.61-5.93,14.29.09-.13.12-.56.26-.76l-3.87-.77c1.02-.9,2.05-1.75,2.58-3.06-5.43-1.53-11.88.95-13.61,6.52,3.48,2.51,7.79,2.51,11.46.42.53-.3,2.93-1.99,3.18-2.34-1.92,3.04-3.93,5.95-6.59,8.43l-.08.33c.98,1.86,1.87,3.9,1.76,6.04l-3.61-1.53c-.07.76,1.06,3.53.1,3.82-.77.23-4.14-2.39-4.74-3.18l6.16-5.16c.16-.59-1.76-2.32-2.32-2.73-1.75-1.31-3.94-2.17-6.16-1.93-.72,3.53-.07,6.71,2.03,9.61.08.25-.11.32-.23.46-.66.74-5.35,2.98-6.53,3.5-14.55,6.34-31.64,4.84-44.72-4.07-8.18-5.57-14.34-13.88-17.61-23.16-.4-.29-3.18,3.44-4.6,1.49-2.75-3.77-1.11-10.52,2.41-13.36.3,3.8.88,7.59,2.06,11.23.36.53,1.2-.71,1.38-.94,2.12-2.82,2.38-6.45,1.59-9.78l-3.35,2.55-.52-3.83-1.03.51c-.68-6.15.69-13.11,2.97-18.88,6.61-16.78,23.68-28.56,41.9-28.85.51,0,1.04,0,1.55,0h0ZM102.93,46.49c.09-1.33-.21-2.69-.9-3.83-4.14,3.48-5.5,9.54-2.17,14.03,5.31-2.03,7.46-7.39,6.16-12.75l-.91.24-2.18,2.31ZM63.47,47.77c.16-.82-2.3-4.84-2.71-4.84-4.22,5.49-4.14,14.6.65,19.77,1.91,2.06,2.37,2.11,4.25.14,5.13-5.37,5.46-14.06,1.03-19.91-1.38,1.2-1.88,2.93-2.68,4.48-.14.27.14.48-.54.36ZM39.48,62.32c-.27.29,1.98,2.39,2.32,2.68,5.3,4.52,13.67,6.06,19.26,1.28-2.83-8.11-11.61-11.68-19.77-9.57l1.67,2.55,2.45,2.04c-2.06-.19-3.98.52-5.93,1.03h0ZM86.16,56.7c-7.96-2.02-17.31,1.35-19.82,9.54,6.92,5.12,16.43,2.86,21.62-3.55.09-.55-.12-.29-.36-.4-1.63-.73-3.54-1.02-5.32-1,1.43-1.38,3.13-2.65,3.87-4.59h0ZM98.28,68.69c.16-.66-1.6-3.57-1.94-3.57-3.35,4.45-2.8,11.62,2.07,14.75,4.63-3.55,5.47-10.06,2.06-14.75l-1.37,1.7-.82,1.87ZM62.13,69.5c-8.66-.13-14.92,7.31-15.43,15.52,2.13.04,3.88-1.38,5.67-2.29-.51,1.73-1.03,3.67-.77,5.49.05.34-.14.46.39.38.85-.12,3.96-2.09,4.75-2.7,4.72-3.69,7.8-10.61,5.39-16.4ZM80.74,85.03c-.45-7.92-6.87-16.19-15.44-15.53-1.88,6.71.69,13.06,6.33,17.02.75.52,3.04,1.98,3.82,2.09.52.08.34-.04.39-.38.26-1.82-.26-3.76-.77-5.49,1.78.96,3.54,2.26,5.67,2.29h0ZM96.43,81.41c.41-.69-1.26-3.07-1.77-3.65-2.9-3.32-7.4-4.32-11.6-3.19l1.04,1.65,1.54,1.41c-.85.02-1.77.15-2.58.38-1.93.55-1.45.73-.12,1.91,3.77,3.32,9.11,4.32,13.49,1.49h0ZM90.03,96.26c3.52-.55,7.25-4.85,7.71-8.32.11-.82.16-4.16-.48-4.58-.83-.54-3.9.68-4.79,1.15-3.59,1.92-5.36,5.53-5.8,9.45,1.48.07,2.66-.88,3.86-1.53l-.51,3.83h0Z"/>
      <path class="cls-1" d="M121.75,53.38c1.8-.26,3.56-.34,5.41-.25-.16,1.97-1.97,3.16-3.09,4.59,1.34-.18,2.59-.23,3.92.08.43.1,1.63.2,1.49.82-.05.21-2.56,2.85-2.96,3.2-1.75,1.53-3.54,2.49-5.81,3.06.85-3.93,1.22-7.44,1.03-11.49h0Z"/>
      <path class="cls-1" d="M22.2,89.88c1.53-5.57,6.94-8.67,12.64-8.17-.21,1.41-1.28,2.46-2.06,3.57l4.13.26c-2.97,5.23-9.03,7.49-14.7,5.1v-.77Z"/>
      <path class="cls-1" d="M205.95,23.01l.39,1.28c2.92-3.41,8.3-1.66,9.66,2.3.59,1.72.59,4.45.06,6.17-1.35,4.42-6.66,5.9-9.73,2.24v6.89h-4.12l-.26-18.89h4ZM208.58,25.36c-3.28.76-3.19,9.51,1.22,8.87,3.47-.51,3.61-9.98-1.22-8.87Z"/>
      <path class="cls-1" d="M134.13,32.7c1.8-.03,3.58.62,5.15,1.4-5.16,5.52-13.85,6.78-19.83,1.75,2.43-7.15,11.55-9.55,18.29-7.11.43.33.14.27,0,.51-.95,1.57-2.42,2.15-3.61,3.45Z"/>
      <path class="cls-1" d="M199.12,36.54h-3.61c-.07-.23.26-1.54-.38-1.27-4.34,5.17-12.46-1.41-6.84-6.01,2.11-1.73,4.17-1.17,6.6-1.64.7-3.12-3.31-4.07-3.76-.78h-3.87c-.53-4.62,6.75-5.3,9.63-3.53.9.55,2.23,2.39,2.23,3.4v9.83h0ZM194.99,30.15c-1.24-.05-2.73-.08-3.74.76-1.85,1.52.28,4.32,2.45,2.93,1.23-.79,1.1-2.4,1.3-3.69Z"/>
      <path class="cls-1" d="M230.83,36.54h-3.87l-.13-1.53c-2.95,3.86-9.68,2.21-8.52-3.33.74-3.57,5.08-4.06,8.14-3.81.78-3.19-3.25-4.4-3.61-1.02h-4.12c-.03-5.84,11.13-5.78,11.84-.62.44,3.23-.45,7.04.28,10.31h0ZM226.45,30.16c-2.24-.68-6.14,1.58-3.6,3.69,2.22,1.85,4.21-1.69,3.6-3.69Z"/>
      <path class="cls-1" d="M246.82,36.54h-4.13v-9.32c0-1.58-2.71-2.63-4.04-1.32-.18.18-.86,1.43-.86,1.57v9.06h-4.12v-13.53h4.12l.13,1.27c1.84-2.15,5.12-2.44,7.36-.64.5.4,1.54,1.72,1.54,2.3v10.59h0Z"/>
      <path class="cls-1" d="M184.16,16.88v15.19c0,.42-1.07,2.48-1.44,2.91-3.61,4.29-12.72,1.88-11.71-4.57h4.13c-.42,3.08,3.46,5.3,4.52,1.79.07-.21.38-1.81.38-1.92v-13.4h4.13Z"/>
      <path class="cls-1" d="M133.1,91.66v-19.91h5.8c7.65,0,10.65,5.9,9.55,12.77-.65,4.07-4.66,7.13-8.78,7.13h-6.58ZM134.9,89.88h5.8c.35,0,2.39-.81,2.8-1.06,4.63-2.89,4.34-12.09-.8-14.44-.32-.14-2.34-.83-2.51-.83h-5.29v16.34Z"/>
      <path class="cls-1" d="M174.87,46.74v1.79h-10.06v6.89h9.8v1.79h-9.8v7.27l.39.38h10.19v1.53h-12.38v-19.65h11.86Z"/>
      <path class="cls-1" d="M205.3,46.74v18.76c0,.13.41.54.26.89h-1.8l-.13-1.78c-2.57,3.1-7.27,3.29-9.36-.43-3-5.34.37-14.73,7.4-11.15.8.41,1.25,1.2,2.09,1.38v-7.66h1.55ZM198.53,53.95c-6.01.94-3.98,14.76,2.73,10.88,3.78-2.18,3.22-11.81-2.73-10.88Z"/>
      <path class="cls-1" d="M227.23,60.02h-10.57c-.7,4.46,5.24,7.54,8,3.7.79-1.11.3-2,2.32-1.66-1.27,7.03-11.36,6.45-12.12-.9-1.18-11.41,12.82-11.91,12.38-1.15h0ZM225.42,58.48c-.4-6.08-8.25-6.17-8.77,0h8.77Z"/>
      <path class="cls-1" d="M226.45,85.03h-10.57c-.17,3.57,2.61,6.4,6.33,5.11,2.22-.77,1.57-3.45,4.24-2.82-1.1,3.54-3.37,4.93-7.1,4.6-6.78-.59-6.99-12.27-1.15-14.17,5.08-1.65,8.86,2.29,8.25,7.27h0ZM224.65,83.5c-.31-6.08-8.11-5.98-8.77,0h8.77Z"/>
      <path class="cls-1" d="M191.85,77.44c9.45-.6,9.54,16.19-1.05,14.42-6.65-1.11-6.79-13.92,1.05-14.42ZM191.83,78.95c-5.36.64-5.38,10.55-.52,11.37,7.66,1.3,7.19-12.17.52-11.37Z"/>
      <path class="cls-1" d="M240.12,56.19c-2.21.41-1.65-.51-2.56-1.42-2.77-2.77-8.49,1.06-4.54,2.97,3.05,1.48,8.18.51,7.34,5.71-.73,4.59-11.07,4.93-10.82-.62l1.78.03c.45,3.98,8.55,3.13,7.13-1.06-.71-2.11-7.13-1.3-8.31-4.27-2.38-5.97,9.66-7.33,9.98-1.33h0Z"/>
      <path class="cls-1" d="M253.27,56.19c-2.29.46-1.56-.63-2.7-1.54-3.14-2.51-8.5,1.41-3.81,3.26,2.57,1.02,7.41.88,7.02,5-.49,5.14-11.07,5.63-11.08-.09l1.77.03c.47,4.43,9.44,2.45,7.1-1.29-1.53-2.45-8.99-.53-8.36-6.02.51-4.44,10.24-4.37,10.06.64h0Z"/>
      <path class="cls-1" d="M168.43,81.2c-2.28.54-1.73-.9-2.84-1.65-2.36-1.58-7.07.15-5.04,2.69,1.61,2.01,8.75.64,8.35,5.65-.43,5.37-11.06,5.67-11.04-.05l1.78.03c.2,3.6,7.28,3.33,7.43.06.17-3.62-7.79-2.13-8.63-5.38-1.62-6.29,9.53-7.02,9.99-1.34h0Z"/>
      <path class="cls-1" d="M240.59,77.92l4.55,11.19,4.55-11.2,2.03-.03-7.42,18.3c-.08.75-2.32.9-2.11.21l1.95-5-5.54-13.17c-.26-.62,1.9-.36,1.99-.31Z"/>
      <path class="cls-1" d="M190.35,66.4h-1.8v-10.08c0-.07-.63-1.13-.77-1.28-1.65-1.88-4.72-1.37-5.99.71-.13.21-.72,1.5-.72,1.59v9.06h-1.8v-13.53h1.81l.25,1.78c1.12-2.8,5.92-3.01,7.74-.9.43.5,1.29,2.48,1.29,3.07v9.57h0Z"/>
      <path class="cls-1" d="M183.12,81.96l-1.82-.11c-.46-1.44-.73-2.13-2.25-2.62-7.22-2.36-7.77,12.78-.29,11.05,1.45-.34,2.28-1.55,2.59-2.92l1.77.1c-.67,3.73-3.37,5.02-7.03,4.4-5.64-.94-6.15-11.97-.64-14.03,3.32-1.24,7.35.35,7.66,4.14h0Z"/>
      <path class="cls-1" d="M206.34,89.11l4.51-10.97,1.93-.25-5.58,13.74c-.49.06-1.21.17-1.65-.09-.73-.44-4.85-11.98-5.67-13.66l1.94.25,4.52,10.98h0Z"/>
      <path class="cls-1" d="M211.23,46.74h-1.81v19.65h1.81v-19.65Z"/>
      <path class="cls-1" d="M231.87,91.66h-1.55l-.26-13.78h1.81l.25,1.79c.35-1.96,2.93-2.62,4.65-2.15v1.64c-1.51-.64-3.43.22-4.24,1.55-.1.17-.66,1.55-.66,1.64v9.32h0Z"/>
      <path class="cls-1" d="M154.24,77.88h-1.55v13.78h1.55v-13.78Z"/>
      <path class="cls-1" d="M253.79,32.96h-3.61v3.57h3.61v-3.57Z"/>
      <path class="cls-1" d="M253.79,89.11h-2.32v2.56h2.32v-2.56Z"/>
      <path class="cls-1" d="M154.5,71.75h-2.07v2.04h2.07v-2.04Z"/>
    </g>
  </g>
</svg>