<?xml version="1.0" encoding="UTF-8"?>
<svg id="Layer_1" data-name="Layer 1" xmlns="http://www.w3.org/2000/svg" viewBox="0 0 276 89.39">
  <defs>
    <style>
      .cls-1, .cls-2 {
        fill: #fff;
      }

      .cls-2 {
        fill-rule: evenodd;
      }
    </style>
  </defs>
  <path class="cls-2" d="M142.58,10.67c3.72-.17,6.8,1.12,9.25,3.89.96,1.35,1.37,2.87,1.24,4.54.16.79-.08,1.42-.71,1.89-1.37.65-2.65.52-3.83-.41-.51-1.03-1.02-2.05-1.53-3.06-1.16-1.96-2.87-2.73-5.13-2.3-1.77.72-2.81,2.03-3.12,3.95-.4,2.16-.16,4.24.71,6.25.61,1.08,1.53,1.69,2.77,1.83,1.72.05,3.45.03,5.18-.06,3.97-.36,5.01,1.21,3.12,4.71-.88.72-1.9,1.04-3.06.94-1.82-.19-3.65-.25-5.48-.18-.53.04-.9.29-1.12.77-.08,7.31-.08,14.61,0,21.92.06.5.22.97.47,1.41.94.86,1.89,1.73,2.83,2.59.86,1.13.64,1.97-.65,2.53-4.4-.07-8.8-.07-13.19,0-1.22-.24-1.71-.97-1.48-2.18.13-.29.29-.57.47-.82.67-.75,1.34-1.49,2.01-2.24.61-1.02.96-2.12,1.06-3.3.08-6.44.08-12.88,0-19.32-.1-.57-.4-1.03-.89-1.36-1.12-.45-2.26-.84-3.41-1.18-.54-.49-.72-1.1-.53-1.83.28-.6.65-1.13,1.12-1.59.82-.48,1.68-.88,2.59-1.18.37-.22.67-.51.88-.88.16-2.56.4-5.11.71-7.66.8-3.78,3.05-6.2,6.77-7.25.99-.2,1.98-.34,2.95-.41Z"/>
  <path class="cls-2" d="M47.49,18.03c-2.8-2.1-5.94-3.39-9.43-3.89-2.94-.26-5.88-.36-8.83-.29-2.44.13-4.89.21-7.37.24-2.26-.08-4.52-.1-6.77-.06-.64.07-1.23.27-1.77.59-.66.49-.88,1.14-.65,1.94.6,1.08,1.23,2.14,1.89,3.18,1.14,1.84,1.57,3.85,1.29,6.01.12,9.35.04,18.7-.23,28.04-.29,1.75-1.08,3.25-2.36,4.48-1.35,1.88-.9,3.08,1.35,3.59,4.52.08,9.04.08,13.56,0,.79-.07,1.54-.31,2.23-.71.58-.47.71-1.04.42-1.71-.87-1.06-1.91-1.91-3.13-2.53-1.3-1.06-2.11-2.41-2.41-4.07-.13-2.08-.17-4.16-.12-6.25.05-.44.12-.87.24-1.3.23-.94.8-1.59,1.7-1.94,2.19-.07,4.37-.05,6.54.06,3.32-.02,6.52-.63,9.61-1.83,5.5-2.59,8.37-6.93,8.6-13.02.12-4.18-1.34-7.7-4.36-10.55ZM30.88,38.24c-1.3.02-2.56-.2-3.78-.65-.9-.35-1.47-1-1.7-1.94-.13-.74-.21-1.49-.24-2.24-.11-4.01-.07-8.01.12-12.02.32-1.18,1.08-1.87,2.3-2.06.81-.02,1.59-.12,2.35-.29,2.81-.05,5.44.6,7.9,1.94,1.88,1.31,3.08,3.1,3.59,5.36.91,7.91-2.6,11.87-10.54,11.9Z"/>
  <path class="cls-2" d="M207.51,25.16c3.92-.33,7.53.55,10.84,2.65,3.02,2.24,3.96,5.15,2.82,8.72-.39.25-.82.4-1.29.47-.79.08-1.57.08-2.36,0-.4-.17-.74-.42-1-.77-1.33-5.78-4.85-7.88-10.55-6.3-2.75,1.22-4.53,3.28-5.36,6.19-1.22,4.38-.79,8.58,1.3,12.61,3.45,5.2,8.14,6.75,14.08,4.65,2.19-.97,3.9-2.48,5.12-4.54,1.48-1.35,2.29-1.02,2.42,1-.38,3.39-1.87,6.18-4.48,8.37-3.62,2.71-7.71,3.89-12.25,3.53-7.57-.95-12.38-5.09-14.44-12.43-1.43-6.18-.4-11.91,3.07-17.2,3.05-4.01,7.08-6.33,12.08-6.95Z"/>
  <path class="cls-2" d="M77.42,26.34c3.89-.22,6.22,1.59,7.01,5.42.22,2.24-.37,4.25-1.77,6.01-.95,1-2.11,1.49-3.47,1.47-.73-.13-1.3-.51-1.71-1.12-.6-1.24-1.23-2.45-1.89-3.65-1.26-1.29-2.7-1.5-4.3-.65-2.17,1.55-3.49,3.65-3.95,6.3-.07,4.36-.07,8.72,0,13.08.14,1.17.42,2.31.83,3.42.8,1.04,1.51,2.14,2.12,3.3.21,1.21-.28,1.97-1.47,2.3-3.18.08-6.37.08-9.55,0-.74-.14-1.44-.38-2.12-.71-.71-.47-.96-1.12-.76-1.94.49-1.34,1.08-2.63,1.76-3.89.26-.69.42-1.39.47-2.12.08-5.81.08-11.63,0-17.44-.1-.55-.3-1.06-.58-1.53-.67-.75-1.34-1.49-2.01-2.24-.7-1.15-.49-2.07.65-2.77,1.57-.84,3.17-1.59,4.83-2.24.76-.32,1.54-.5,2.36-.53.42-.03.82.07,1.18.29,1.04,1.05,1.81,2.29,2.29,3.71.26.33.6.43,1.01.29,1.23-1.07,2.52-2.05,3.88-2.95,1.62-.98,3.35-1.59,5.19-1.83Z"/>
  <path class="cls-2" d="M186.3,48.79c-.67-.13-1.2.09-1.6.65-2.43,3.94-5.99,5.86-10.66,5.77-1.79.08-3.48-.29-5.07-1.12-3.12-1.79-4.71-4.48-4.77-8.07l.18-.18c4.6-.2,9.15-.75,13.67-1.65,2.02-.45,3.94-1.16,5.77-2.12.94-.54,1.62-1.31,2.06-2.3.87-5.39-.95-9.61-5.48-12.67-2.97-1.64-6.15-2.32-9.54-2.06-2.35.27-4.59.95-6.72,2.06-4.85,2.9-7.9,7.12-9.13,12.67-1.12,5.56-.22,10.74,2.71,15.55,3.43,4.51,8,6.79,13.73,6.83,4.8.02,8.9-1.63,12.31-4.95,1.74-1.87,2.74-4.06,3.01-6.6.09-.68-.07-1.29-.47-1.83ZM163.26,40.71c-.31-3.8.97-6.97,3.83-9.49,1-.75,2.1-1.28,3.3-1.59,4.76-.26,7.4,1.98,7.89,6.72.03,1.19-.49,2.07-1.53,2.65-2.67,1.17-5.46,1.91-8.37,2.24-1.52.25-3.05.33-4.59.24-.25-.2-.43-.46-.53-.77Z"/>
  <path class="cls-2" d="M118.6,30.7c-4.15-4.11-9.16-5.95-15.02-5.54-5.37.63-9.55,3.18-12.55,7.66-2.8,4.9-3.62,10.13-2.48,15.67,1.03,4.79,3.6,8.46,7.72,11.02,4.43,2.33,9.1,3,14.02,2,7.53-1.8,11.87-6.53,13.02-14.2.87-6.26-.71-11.8-4.71-16.61ZM114.48,50.26c-1.27,4.79-4.35,6.85-9.25,6.19-2.49-.72-4.4-2.19-5.72-4.42-1.74-3.52-2.54-7.25-2.41-11.19-.22-3.2.58-6.11,2.41-8.72,1.04-1.19,2.31-1.98,3.83-2.36,2.21-.23,4.18.34,5.89,1.71,2.24,2.04,3.75,4.54,4.54,7.48,1.1,3.72,1.33,7.49.71,11.31Z"/>
  <path class="cls-2" d="M259.06,31.29c-4.28-4.58-9.56-6.62-15.85-6.13-4.78.67-8.65,2.91-11.61,6.72-3.01,4.5-4.15,9.45-3.42,14.85.63,4.94,2.89,8.92,6.78,11.96,4.69,3.05,9.8,3.99,15.32,2.83,8.06-1.97,12.44-7.1,13.14-15.38.47-5.54-.99-10.49-4.36-14.85ZM253.64,52.5c-1.69,3.1-4.3,4.45-7.84,4.07-3.55-.84-5.97-2.98-7.25-6.42-1.66-4.71-1.97-9.5-.94-14.38.81-3.02,2.67-5.03,5.6-6.01,2.99-.26,5.44.76,7.36,3.06,2.08,2.76,3.37,5.87,3.89,9.31.77,3.55.5,7.01-.82,10.37Z"/>
  <path class="cls-1" d="M13.49,78.63v-7.33h3.01c.65,0,1.21.1,1.67.31.47.21.83.51,1.08.9.25.39.38.86.38,1.39s-.13,1-.38,1.39c-.25.39-.61.69-1.08.9-.46.21-1.02.31-1.67.31h-2.26l.61-.64v2.76h-1.36ZM14.85,76.02l-.61-.66h2.2c.6,0,1.05-.13,1.35-.38.31-.26.46-.62.46-1.08s-.15-.83-.46-1.08c-.3-.25-.75-.38-1.35-.38h-2.2l.61-.67v4.24ZM20.81,78.63v-5.59h1.25v1.54l-.15-.45c.17-.38.43-.66.79-.86s.81-.29,1.35-.29v1.25c-.06-.01-.11-.02-.16-.02-.05,0-.1-.01-.15-.01-.49,0-.89.15-1.18.44-.29.29-.44.72-.44,1.29v2.71h-1.31ZM27.62,78.7c-.57,0-1.08-.12-1.53-.37-.44-.25-.8-.59-1.06-1.03-.25-.43-.38-.93-.38-1.48s.13-1.05.38-1.48c.26-.43.62-.77,1.06-1.02.45-.24.96-.37,1.53-.37s1.1.12,1.54.37c.46.24.81.58,1.06,1.01.26.43.39.92.39,1.49s-.13,1.04-.39,1.48c-.25.43-.6.78-1.06,1.03-.44.24-.96.37-1.54.37ZM27.62,77.58c.32,0,.61-.07.86-.21.25-.14.45-.34.59-.61.14-.27.22-.58.22-.93s-.08-.67-.22-.93c-.14-.27-.34-.47-.59-.61-.25-.14-.53-.21-.85-.21s-.61.07-.86.21c-.24.14-.44.34-.58.61-.15.26-.22.57-.22.93s.07.67.22.93c.14.27.34.47.58.61.25.14.54.21.85.21ZM34.43,78.7c-.59,0-1.11-.12-1.57-.37-.46-.25-.81-.59-1.07-1.03-.26-.43-.39-.93-.39-1.48s.13-1.05.39-1.48c.26-.43.61-.77,1.07-1.02.46-.24.98-.37,1.57-.37.54,0,1.02.11,1.43.34.42.22.74.54.96.96l-1.01.59c-.17-.27-.37-.46-.62-.59-.24-.13-.49-.19-.77-.19-.32,0-.61.07-.87.21-.26.14-.46.34-.61.61-.15.26-.22.57-.22.93s.07.68.22.94c.15.26.35.46.61.6.26.14.55.21.87.21.28,0,.53-.06.77-.19.25-.13.45-.32.62-.59l1.01.59c-.22.42-.54.74-.96.97-.41.22-.89.34-1.43.34ZM40.32,78.7c-.48,0-.9-.09-1.26-.26-.36-.18-.65-.45-.85-.82-.2-.37-.3-.83-.3-1.39v-3.2h1.31v3.02c0,.5.11.88.33,1.13.23.24.56.37.98.37.3,0,.57-.06.79-.19.23-.13.41-.31.54-.57.13-.25.2-.56.2-.93v-2.83h1.31v5.59h-1.25v-1.51l.22.46c-.19.36-.47.64-.83.84-.36.19-.76.28-1.19.28ZM45.08,78.63v-5.59h1.25v1.54l-.15-.45c.17-.38.43-.66.79-.86.36-.2.81-.29,1.35-.29v1.25c-.06-.01-.11-.02-.16-.02-.05,0-.1-.01-.15-.01-.49,0-.89.15-1.18.44-.29.29-.44.72-.44,1.29v2.71h-1.31ZM52.48,78.63v-1.13l-.08-.24v-1.98c0-.38-.11-.68-.34-.89-.23-.22-.58-.32-1.05-.32-.31,0-.63.05-.93.15-.3.1-.56.23-.77.41l-.51-.95c.3-.23.66-.4,1.07-.51.42-.12.85-.18,1.3-.18.81,0,1.43.2,1.87.59.45.38.67.98.67,1.79v3.28h-1.23ZM50.72,78.7c-.42,0-.79-.07-1.1-.21-.32-.15-.56-.35-.74-.6-.17-.26-.25-.55-.25-.87s.07-.6.22-.85c.15-.25.4-.45.75-.6.34-.15.79-.22,1.36-.22h1.62v.87h-1.53c-.45,0-.75.07-.9.22-.15.14-.23.31-.23.52,0,.24.09.43.28.57.19.14.45.21.79.21.32,0,.61-.07.86-.22.26-.15.44-.36.55-.65l.22.79c-.12.33-.35.58-.68.76-.32.18-.73.27-1.22.27ZM57.77,78.7c-.54,0-1.02-.12-1.45-.36-.43-.24-.77-.58-1.01-1.01-.25-.43-.37-.93-.37-1.51s.12-1.08.37-1.51c.24-.43.58-.76,1.01-1,.43-.24.91-.36,1.45-.36.47,0,.89.1,1.26.31.37.2.66.51.88.93s.32.96.32,1.61-.1,1.19-.31,1.61c-.21.42-.5.73-.87.94-.37.21-.8.31-1.28.31ZM57.93,77.58c.31,0,.59-.07.84-.21.25-.14.45-.34.59-.61.16-.27.23-.58.23-.93s-.07-.67-.23-.93c-.14-.27-.34-.47-.59-.61-.25-.14-.53-.21-.84-.21s-.6.07-.85.21c-.24.14-.44.34-.6.61-.14.26-.22.57-.22.93s.08.67.22.93c.16.27.36.47.6.61.25.14.53.21.85.21ZM59.63,78.63v-1.32l.05-1.49-.11-1.49v-3.48h1.3v7.77h-1.24ZM64.96,78.7c-.47,0-.89-.09-1.25-.26-.37-.18-.65-.45-.85-.82-.2-.37-.31-.83-.31-1.39v-3.2h1.31v3.02c0,.5.12.88.34,1.13.23.24.55.37.97.37.31,0,.58-.06.8-.19.23-.13.41-.31.53-.57.14-.25.2-.56.2-.93v-2.83h1.31v5.59h-1.24v-1.51l.22.46c-.19.36-.47.64-.83.84-.36.19-.76.28-1.2.28ZM69.73,78.63v-5.59h1.24v1.54l-.14-.45c.17-.38.43-.66.78-.86.37-.2.82-.29,1.36-.29v1.25c-.06-.01-.11-.02-.16-.02-.05,0-.1-.01-.15-.01-.49,0-.89.15-1.18.44-.3.29-.44.72-.44,1.29v2.71h-1.31ZM74.08,78.63v-5.59h1.31v5.59h-1.31ZM73.86,72.27l1.41-1.44h1.54l-1.82,1.44h-1.13ZM80.55,78.63v-1.13l-.07-.24v-1.98c0-.38-.12-.68-.35-.89-.23-.22-.58-.32-1.04-.32-.32,0-.63.05-.94.15-.3.1-.55.23-.76.41l-.52-.95c.31-.23.66-.4,1.07-.51.42-.12.86-.18,1.3-.18.81,0,1.44.2,1.88.59.45.38.67.98.67,1.79v3.28h-1.24ZM78.79,78.7c-.42,0-.78-.07-1.1-.21-.31-.15-.56-.35-.73-.6-.17-.26-.25-.55-.25-.87s.07-.6.22-.85c.15-.25.4-.45.74-.6s.8-.22,1.36-.22h1.63v.87h-1.53c-.45,0-.75.07-.9.22-.16.14-.23.31-.23.52,0,.24.09.43.28.57.19.14.45.21.78.21s.61-.07.86-.22c.26-.15.45-.36.56-.65l.22.79c-.13.33-.35.58-.68.76-.32.18-.73.27-1.23.27ZM86.49,78.63v-7.33h5.35v1.14h-3.99v6.19h-1.36ZM87.74,75.82v-1.15h3.65v1.15h-3.65ZM95.51,78.7c-.62,0-1.16-.12-1.63-.37-.46-.25-.82-.59-1.08-1.03-.25-.43-.38-.93-.38-1.48s.12-1.05.37-1.48c.25-.43.59-.77,1.03-1.02.44-.24.93-.37,1.49-.37s1.03.12,1.46.36c.43.24.76.57,1.01,1.01.24.43.36.94.36,1.53,0,.06,0,.12-.01.19,0,.07,0,.14-.01.2h-4.66v-.87h3.97l-.51.27c0-.32-.06-.6-.2-.85-.14-.24-.33-.44-.58-.58-.24-.14-.51-.21-.83-.21s-.6.07-.85.21c-.23.14-.42.34-.56.59-.13.24-.2.53-.2.87v.21c0,.34.08.63.23.89.15.26.37.46.65.6.28.14.6.21.96.21.32,0,.6-.05.85-.15s.48-.25.67-.46l.71.81c-.26.29-.57.52-.96.68-.38.15-.81.23-1.3.23ZM101.77,78.7c-.54,0-1.03-.12-1.46-.36-.42-.24-.76-.58-1-1.01-.25-.43-.37-.93-.37-1.51s.12-1.08.37-1.51c.24-.43.58-.76,1-1,.43-.24.92-.36,1.46-.36.47,0,.89.1,1.26.31.37.2.66.51.88.93.21.42.32.96.32,1.61s-.1,1.19-.31,1.61c-.21.42-.5.73-.87.94-.37.21-.8.31-1.28.31ZM101.93,77.58c.31,0,.59-.07.83-.21.25-.14.45-.34.6-.61.15-.27.23-.58.23-.93s-.08-.67-.23-.93c-.15-.27-.35-.47-.6-.61-.24-.14-.52-.21-.83-.21s-.6.07-.85.21c-.25.14-.45.34-.6.61-.15.26-.22.57-.22.93s.07.67.22.93c.15.27.35.47.6.61.25.14.53.21.85.21ZM103.62,78.63v-1.32l.05-1.49-.1-1.49v-3.48h1.3v7.77h-1.25ZM109.22,78.7c-.62,0-1.16-.12-1.63-.37-.46-.25-.82-.59-1.08-1.03-.25-.43-.38-.93-.38-1.48s.12-1.05.37-1.48c.25-.43.59-.77,1.03-1.02.44-.24.94-.37,1.49-.37s1.03.12,1.46.36c.43.24.76.57,1.01,1.01.24.43.36.94.36,1.53,0,.06,0,.12,0,.19,0,.07,0,.14-.01.2h-4.66v-.87h3.97l-.51.27c0-.32-.06-.6-.2-.85-.14-.24-.33-.44-.58-.58-.24-.14-.51-.21-.83-.21s-.6.07-.84.21-.43.34-.57.59c-.13.24-.2.53-.2.87v.21c0,.34.08.63.23.89.15.26.37.46.65.6s.6.21.96.21c.32,0,.6-.05.85-.15s.48-.25.67-.46l.71.81c-.26.29-.57.52-.96.68-.38.15-.81.23-1.3.23ZM113.11,78.63v-5.59h1.25v1.54l-.15-.45c.17-.38.43-.66.79-.86s.81-.29,1.35-.29v1.25c-.06-.01-.11-.02-.16-.02-.05,0-.1-.01-.15-.01-.49,0-.89.15-1.18.44-.29.29-.44.72-.44,1.29v2.71h-1.31ZM120.51,78.63v-1.13l-.08-.24v-1.98c0-.38-.11-.68-.34-.89-.23-.22-.58-.32-1.05-.32-.31,0-.62.05-.93.15-.3.1-.56.23-.77.41l-.51-.95c.3-.23.66-.4,1.07-.51.42-.12.85-.18,1.3-.18.81,0,1.43.2,1.87.59.45.38.67.98.67,1.79v3.28h-1.23ZM118.75,78.7c-.42,0-.79-.07-1.1-.21-.32-.15-.56-.35-.74-.6-.16-.26-.25-.55-.25-.87s.08-.6.22-.85c.16-.25.4-.45.75-.6.34-.15.79-.22,1.36-.22h1.62v.87h-1.53c-.44,0-.75.07-.9.22-.15.14-.23.31-.23.52,0,.24.1.43.28.57.19.14.45.21.79.21.32,0,.61-.07.86-.22.26-.15.44-.36.55-.65l.22.79c-.12.33-.35.58-.68.76-.32.18-.73.27-1.22.27ZM123.42,78.63v-7.77h1.31v7.77h-1.31ZM131.72,78.7c-.54,0-1.03-.12-1.46-.36-.43-.24-.76-.58-1.01-1.01-.24-.43-.36-.93-.36-1.51s.12-1.08.36-1.51c.25-.43.58-.76,1.01-1,.43-.24.92-.36,1.46-.36.46,0,.88.1,1.25.31.37.2.67.51.88.93.22.42.33.96.33,1.61s-.11,1.19-.32,1.61c-.21.42-.5.73-.87.94-.37.21-.79.31-1.27.31ZM131.87,77.58c.32,0,.6-.07.84-.21.25-.14.45-.34.6-.61.15-.27.23-.58.23-.93s-.08-.67-.23-.93c-.15-.27-.35-.47-.6-.61-.24-.14-.52-.21-.84-.21s-.59.07-.85.21c-.24.14-.44.34-.59.61-.15.26-.22.57-.22.93s.07.67.22.93c.15.27.35.47.59.61.26.14.54.21.85.21ZM133.57,78.63v-1.32l.05-1.49-.1-1.49v-3.48h1.3v7.77h-1.25ZM139.17,78.7c-.62,0-1.17-.12-1.63-.37-.46-.25-.82-.59-1.08-1.03-.25-.43-.38-.93-.38-1.48s.12-1.05.37-1.48c.25-.43.59-.77,1.02-1.02.44-.24.94-.37,1.5-.37s1.03.12,1.46.36c.42.24.76.57,1,1.01.25.43.37.94.37,1.53,0,.06,0,.12-.01.19,0,.07,0,.14-.01.2h-4.66v-.87h3.97l-.51.27c0-.32-.06-.6-.2-.85-.14-.24-.34-.44-.58-.58s-.51-.21-.83-.21-.6.07-.85.21c-.23.14-.42.34-.56.59-.13.24-.2.53-.2.87v.21c0,.34.08.63.23.89.15.26.37.46.65.6.28.14.6.21.96.21.32,0,.6-.05.85-.15s.48-.25.67-.46l.7.81c-.25.29-.57.52-.95.68-.38.15-.81.23-1.3.23ZM143.06,78.63v-7.77h1.31v7.77h-1.31ZM152.5,78.74c-.56,0-1.08-.09-1.56-.27-.47-.19-.89-.45-1.24-.79-.35-.34-.63-.74-.82-1.2-.2-.46-.29-.96-.29-1.51s.09-1.05.29-1.51c.19-.46.47-.86.83-1.19.35-.34.77-.6,1.24-.79.48-.19,1-.28,1.56-.28.6,0,1.15.1,1.65.31.5.2.91.51,1.26.91l-.88.83c-.27-.29-.57-.5-.89-.64-.33-.15-.69-.22-1.07-.22s-.74.06-1.06.19c-.32.13-.59.3-.83.53-.23.23-.41.5-.54.82-.13.31-.19.66-.19,1.04s.06.72.19,1.04c.13.31.31.59.54.82.24.23.51.41.83.53.32.13.67.19,1.06.19s.74-.07,1.07-.21c.32-.15.62-.37.89-.66l.88.84c-.35.4-.76.7-1.26.91-.5.21-1.05.31-1.66.31ZM158.81,78.7c-.57,0-1.08-.12-1.53-.37-.44-.25-.8-.59-1.05-1.03-.26-.43-.39-.93-.39-1.48s.13-1.05.39-1.48c.25-.43.61-.77,1.05-1.02.45-.24.96-.37,1.53-.37s1.1.12,1.54.37c.46.24.81.58,1.06,1.01.26.43.39.92.39,1.49s-.13,1.04-.39,1.48c-.25.43-.6.78-1.06,1.03-.44.24-.96.37-1.54.37ZM158.81,77.58c.32,0,.61-.07.86-.21.25-.14.45-.34.59-.61.15-.27.22-.58.22-.93s-.07-.67-.22-.93c-.14-.27-.34-.47-.59-.61-.25-.14-.53-.21-.85-.21s-.6.07-.86.21c-.24.14-.44.34-.58.61-.15.26-.22.57-.22.93s.07.67.22.93c.14.27.34.47.58.61.26.14.54.21.85.21ZM163.05,78.63v-5.59h1.25v1.51l-.22-.46c.19-.36.48-.63.85-.82.37-.2.81-.29,1.3-.29.44,0,.84.09,1.19.26.36.17.64.44.84.81.2.36.3.82.3,1.38v3.21h-1.31v-3.04c0-.5-.12-.87-.35-1.11-.23-.24-.56-.37-.98-.37-.3,0-.58.06-.81.19-.24.13-.43.31-.56.57-.13.24-.19.56-.19.93v2.83h-1.31ZM171.95,78.7c-.46,0-.92-.06-1.35-.18-.42-.13-.76-.28-1.01-.45l.5-1c.25.16.55.29.9.4.35.1.7.16,1.05.16.41,0,.71-.06.89-.17.19-.11.28-.26.28-.45,0-.15-.06-.27-.19-.35-.12-.08-.29-.15-.49-.19s-.43-.08-.68-.12c-.25-.03-.49-.08-.75-.14-.24-.06-.46-.15-.67-.26-.2-.12-.36-.28-.49-.47-.12-.2-.19-.45-.19-.78,0-.36.1-.66.31-.92.2-.27.48-.47.85-.61.37-.15.8-.22,1.31-.22.37,0,.75.04,1.14.13.38.08.7.2.95.36l-.5,1c-.27-.16-.54-.27-.81-.32-.26-.06-.53-.09-.8-.09-.39,0-.69.06-.89.18-.18.12-.28.27-.28.45,0,.17.06.29.19.38.13.08.29.15.49.2.2.05.43.09.67.13.25.03.5.07.75.14.24.06.46.15.67.26.21.1.37.25.5.45s.19.45.19.76c0,.35-.11.65-.32.91-.2.26-.49.46-.87.61-.37.14-.82.21-1.35.21ZM177.98,78.7c-.47,0-.89-.09-1.25-.26-.37-.18-.65-.45-.85-.82-.2-.37-.31-.83-.31-1.39v-3.2h1.31v3.02c0,.5.12.88.34,1.13.23.24.55.37.97.37.31,0,.58-.06.8-.19.23-.13.41-.31.53-.57.14-.25.2-.56.2-.93v-2.83h1.31v5.59h-1.24v-1.51l.22.46c-.19.36-.47.64-.83.84-.36.19-.76.28-1.2.28ZM182.75,78.63v-5.59h1.24v1.49l-.22-.44c.19-.36.47-.64.82-.83.37-.19.78-.28,1.24-.28.52,0,.98.13,1.36.39.39.26.65.65.78,1.17l-.52-.18c.18-.42.48-.75.9-1.01.42-.25.91-.38,1.46-.38.45,0,.84.09,1.18.26.35.17.63.44.82.81.2.36.29.82.29,1.38v3.21h-1.31v-3.04c0-.5-.1-.87-.32-1.11-.22-.24-.53-.37-.93-.37-.29,0-.54.06-.77.19-.21.13-.39.31-.51.56-.12.24-.18.56-.18.93v2.84h-1.31v-3.04c0-.5-.11-.87-.32-1.11-.22-.24-.53-.37-.94-.37-.28,0-.54.06-.76.19-.22.13-.39.31-.51.56-.12.24-.18.56-.18.93v2.84h-1.31ZM193.78,78.63v-5.59h1.31v5.59h-1.31ZM194.44,72.11c-.25,0-.45-.08-.61-.23-.15-.15-.23-.34-.23-.56s.08-.41.23-.56c.16-.15.36-.23.61-.23s.44.07.6.22c.16.14.24.32.24.53,0,.23-.08.43-.23.59-.16.15-.36.23-.61.23ZM199.17,78.7c-.53,0-1.02-.12-1.45-.36-.43-.24-.76-.58-1.01-1.01-.24-.43-.36-.93-.36-1.51s.12-1.08.36-1.51c.25-.43.58-.76,1.01-1,.43-.24.92-.36,1.45-.36.47,0,.89.1,1.26.31.37.2.67.51.88.93.22.42.33.96.33,1.61s-.11,1.19-.32,1.61c-.21.42-.5.73-.87.94-.37.21-.79.31-1.28.31ZM199.33,77.58c.32,0,.6-.07.84-.21.25-.14.45-.34.6-.61.15-.27.23-.58.23-.93s-.08-.67-.23-.93c-.15-.27-.35-.47-.6-.61-.24-.14-.52-.21-.84-.21s-.6.07-.85.21c-.24.14-.44.34-.59.61-.15.26-.22.57-.22.93s.07.67.22.93c.15.27.35.47.59.61.25.14.54.21.85.21ZM201.03,78.63v-1.32l.05-1.49-.1-1.49v-3.48h1.3v7.77h-1.25ZM206.51,78.7c-.57,0-1.08-.12-1.53-.37-.44-.25-.8-.59-1.05-1.03-.26-.43-.39-.93-.39-1.48s.13-1.05.39-1.48c.25-.43.61-.77,1.05-1.02.45-.24.96-.37,1.53-.37s1.1.12,1.54.37c.46.24.81.58,1.06,1.01.26.43.39.92.39,1.49s-.13,1.04-.39,1.48c-.25.43-.6.78-1.06,1.03-.44.24-.96.37-1.54.37ZM206.51,77.58c.33,0,.61-.07.86-.21.25-.14.45-.34.59-.61.15-.27.22-.58.22-.93s-.07-.67-.22-.93c-.14-.27-.34-.47-.59-.61-.25-.14-.53-.21-.85-.21s-.6.07-.85.21c-.25.14-.44.34-.59.61-.15.26-.22.57-.22.93s.07.67.22.93c.15.27.34.47.59.61.25.14.53.21.84.21ZM210.75,78.63v-5.59h1.25v1.54l-.15-.45c.17-.38.43-.66.79-.86s.81-.29,1.35-.29v1.25c-.06-.01-.11-.02-.16-.02-.05,0-.1-.01-.14-.01-.5,0-.89.15-1.19.44-.29.29-.44.72-.44,1.29v2.71h-1.31Z"/>
</svg>